999
"DXF R12 Output" (www.mydxf.blogspot.com)
 0 
SECTION
 2 
HEADER
 9 
$ACADVER
 1 
AC1009
 9 
$EXTMIN
 10 
 0 
 20 
 0 
 9 
$EXTMAX
 10 
 8.5 
 20 
 11 
 0 
ENDSEC
 0 
SECTION
 2 
ENTITIES
0
POLYLINE
8
Layer 1
62
10
70
0
10
0.000000
20
0.000000
66
1
0
VERTEX
8
Layer 1
10
94.939003
20
484.520004
70
0
0
VERTEX
8
Layer 1
10
95.307777
20
484.031998
70
0
0
VERTEX
8
Layer 1
10
95.536003
20
483.729996
70
0
0
VERTEX
8
Layer 1
10
95.933296
20
483.007996
70
0
0
VERTEX
8
Layer 1
10
96.044998
20
482.804993
70
0
0
VERTEX
8
Layer 1
10
96.255997
20
482.271332
70
0
0
VERTEX
8
Layer 1
10
96.369598
20
481.983994
70
0
0
VERTEX
8
Layer 1
10
96.455002
20
481.768005
70
0
0
VERTEX
8
Layer 1
10
96.670853
20
480.960007
70
0
0
VERTEX
8
Layer 1
10
96.754997
20
480.645004
70
0
0
VERTEX
8
Layer 1
10
96.785477
20
480.447998
70
0
0
VERTEX
8
Layer 1
10
96.864677
20
479.936005
70
0
0
VERTEX
8
Layer 1
10
96.938004
20
479.462006
70
0
0
VERTEX
8
Layer 1
10
96.939941
20
479.423996
70
0
0
VERTEX
8
Layer 1
10
96.966133
20
478.912003
70
0
0
VERTEX
8
Layer 1
10
96.992325
20
478.399994
70
0
0
VERTEX
8
Layer 1
10
97.000000
20
478.250000
70
0
0
VERTEX
8
Layer 1
10
97.000000
20
477.888000
70
0
0
VERTEX
8
Layer 1
10
97.000000
20
475.839996
70
0
0
VERTEX
8
Layer 1
10
97.000000
20
467.647995
70
0
0
VERTEX
8
Layer 1
10
97.000000
20
459.455994
70
0
0
VERTEX
8
Layer 1
10
97.000000
20
451.264008
70
0
0
VERTEX
8
Layer 1
10
97.000000
20
443.072006
70
0
0
VERTEX
8
Layer 1
10
97.000000
20
434.879997
70
0
0
VERTEX
8
Layer 1
10
97.000000
20
426.688004
70
0
0
VERTEX
8
Layer 1
10
97.000000
20
418.496002
70
0
0
VERTEX
8
Layer 1
10
97.000000
20
410.304001
70
0
0
VERTEX
8
Layer 1
10
97.000000
20
402.112000
70
0
0
VERTEX
8
Layer 1
10
97.000000
20
393.919998
70
0
0
VERTEX
8
Layer 1
10
97.000000
20
385.727997
70
0
0
VERTEX
8
Layer 1
10
97.000000
20
377.536003
70
0
0
VERTEX
8
Layer 1
10
97.000000
20
369.344002
70
0
0
VERTEX
8
Layer 1
10
97.000000
20
361.152000
70
0
0
VERTEX
8
Layer 1
10
97.000000
20
352.959999
70
0
0
VERTEX
8
Layer 1
10
97.000000
20
344.768002
70
0
0
VERTEX
8
Layer 1
10
97.000000
20
336.576000
70
0
0
VERTEX
8
Layer 1
10
97.000000
20
328.384001
70
0
0
VERTEX
8
Layer 1
10
97.000000
20
320.192000
70
0
0
VERTEX
8
Layer 1
10
97.000000
20
312.000000
70
0
0
VERTEX
8
Layer 1
10
97.000000
20
303.808000
70
0
0
VERTEX
8
Layer 1
10
97.000000
20
295.615999
70
0
0
VERTEX
8
Layer 1
10
97.000000
20
287.424000
70
0
0
VERTEX
8
Layer 1
10
97.000000
20
279.231998
70
0
0
VERTEX
8
Layer 1
10
97.000000
20
271.040001
70
0
0
VERTEX
8
Layer 1
10
97.000000
20
262.848000
70
0
0
VERTEX
8
Layer 1
10
97.000000
20
254.655998
70
0
0
VERTEX
8
Layer 1
10
97.000000
20
246.463997
70
0
0
VERTEX
8
Layer 1
10
97.000000
20
238.272003
70
0
0
VERTEX
8
Layer 1
10
97.000000
20
230.080002
70
0
0
VERTEX
8
Layer 1
10
97.000000
20
221.888000
70
0
0
VERTEX
8
Layer 1
10
97.000000
20
213.695999
70
0
0
VERTEX
8
Layer 1
10
97.000000
20
205.503998
70
0
0
VERTEX
8
Layer 1
10
97.000000
20
197.311996
70
0
0
VERTEX
8
Layer 1
10
97.000000
20
189.120003
70
0
0
VERTEX
8
Layer 1
10
97.000000
20
185.024002
70
0
0
VERTEX
8
Layer 1
10
97.000000
20
184.000000
70
0
0
VERTEX
8
Layer 1
10
97.000000
20
183.750000
70
0
0
VERTEX
8
Layer 1
10
96.986595
20
183.488007
70
0
0
VERTEX
8
Layer 1
10
96.960403
20
182.975998
70
0
0
VERTEX
8
Layer 1
10
96.938004
20
182.537994
70
0
0
VERTEX
8
Layer 1
10
96.926552
20
182.464005
70
0
0
VERTEX
8
Layer 1
10
96.847351
20
181.951996
70
0
0
VERTEX
8
Layer 1
10
96.768150
20
181.440002
70
0
0
VERTEX
8
Layer 1
10
96.754997
20
181.354996
70
0
0
VERTEX
8
Layer 1
10
96.640930
20
180.927994
70
0
0
VERTEX
8
Layer 1
10
96.455002
20
180.231995
70
0
0
VERTEX
8
Layer 1
10
96.255997
20
179.728668
70
0
0
VERTEX
8
Layer 1
10
96.044998
20
179.195007
70
0
0
VERTEX
8
Layer 1
10
95.871666
20
178.880005
70
0
0
VERTEX
8
Layer 1
10
95.536003
20
178.270004
70
0
0
VERTEX
8
Layer 1
10
95.223145
20
177.856003
70
0
0
VERTEX
8
Layer 1
10
94.939003
20
177.479996
70
0
0
VERTEX
8
Layer 1
10
94.269997
20
176.845001
70
0
0
VERTEX
8
Layer 1
10
94.249771
20
176.832001
70
0
0
VERTEX
8
Layer 1
10
94.208000
20
176.805145
70
0
0
VERTEX
8
Layer 1
10
93.544998
20
176.378998
70
0
0
VERTEX
8
Layer 1
10
92.781998
20
176.095001
70
0
0
VERTEX
8
Layer 1
10
92.000000
20
176.000000
70
0
0
VERTEX
8
Layer 1
10
90.112000
20
176.000000
70
0
0
VERTEX
8
Layer 1
10
81.919998
20
176.000000
70
0
0
VERTEX
8
Layer 1
10
73.727997
20
176.000000
70
0
0
VERTEX
8
Layer 1
10
65.536003
20
176.000000
70
0
0
VERTEX
8
Layer 1
10
57.344002
20
176.000000
70
0
0
VERTEX
8
Layer 1
10
49.152000
20
176.000000
70
0
0
VERTEX
8
Layer 1
10
40.959999
20
176.000000
70
0
0
VERTEX
8
Layer 1
10
32.768002
20
176.000000
70
0
0
VERTEX
8
Layer 1
10
24.576000
20
176.000000
70
0
0
VERTEX
8
Layer 1
10
16.384001
20
176.000000
70
0
0
VERTEX
8
Layer 1
10
8.192000
20
176.000000
70
0
0
VERTEX
8
Layer 1
10
0.000000
20
176.000000
70
0
0
VERTEX
8
Layer 1
10
-8.192000
20
176.000000
70
0
0
VERTEX
8
Layer 1
10
-16.384001
20
176.000000
70
0
0
VERTEX
8
Layer 1
10
-24.576000
20
176.000000
70
0
0
VERTEX
8
Layer 1
10
-32.768002
20
176.000000
70
0
0
VERTEX
8
Layer 1
10
-40.959999
20
176.000000
70
0
0
VERTEX
8
Layer 1
10
-49.152000
20
176.000000
70
0
0
VERTEX
8
Layer 1
10
-57.344002
20
176.000000
70
0
0
VERTEX
8
Layer 1
10
-65.536003
20
176.000000
70
0
0
VERTEX
8
Layer 1
10
-73.727997
20
176.000000
70
0
0
VERTEX
8
Layer 1
10
-81.919998
20
176.000000
70
0
0
VERTEX
8
Layer 1
10
-90.112000
20
176.000000
70
0
0
VERTEX
8
Layer 1
10
-94.208000
20
176.000000
70
0
0
VERTEX
8
Layer 1
10
-98.000000
20
176.000000
70
0
0
VERTEX
8
Layer 1
10
-98.304001
20
176.036926
70
0
0
VERTEX
8
Layer 1
10
-98.781998
20
176.095001
70
0
0
VERTEX
8
Layer 1
10
-99.544998
20
176.378998
70
0
0
VERTEX
8
Layer 1
10
-100.249771
20
176.832001
70
0
0
VERTEX
8
Layer 1
10
-100.269997
20
176.845001
70
0
0
VERTEX
8
Layer 1
10
-100.351997
20
176.922836
70
0
0
VERTEX
8
Layer 1
10
-100.939003
20
177.479996
70
0
0
VERTEX
8
Layer 1
10
-101.223145
20
177.856003
70
0
0
VERTEX
8
Layer 1
10
-101.536003
20
178.270004
70
0
0
VERTEX
8
Layer 1
10
-101.871666
20
178.880005
70
0
0
VERTEX
8
Layer 1
10
-102.044998
20
179.195007
70
0
0
VERTEX
8
Layer 1
10
-102.325317
20
179.904007
70
0
0
VERTEX
8
Layer 1
10
-102.400002
20
180.092896
70
0
0
VERTEX
8
Layer 1
10
-102.455002
20
180.231995
70
0
0
VERTEX
8
Layer 1
10
-102.640930
20
180.927994
70
0
0
VERTEX
8
Layer 1
10
-102.754997
20
181.354996
70
0
0
VERTEX
8
Layer 1
10
-102.768150
20
181.440002
70
0
0
VERTEX
8
Layer 1
10
-102.847351
20
181.951996
70
0
0
VERTEX
8
Layer 1
10
-102.926552
20
182.464005
70
0
0
VERTEX
8
Layer 1
10
-102.938004
20
182.537994
70
0
0
VERTEX
8
Layer 1
10
-102.960403
20
182.975998
70
0
0
VERTEX
8
Layer 1
10
-102.986595
20
183.488007
70
0
0
VERTEX
8
Layer 1
10
-103.000000
20
183.750000
70
0
0
VERTEX
8
Layer 1
10
-103.000000
20
184.000000
70
0
0
VERTEX
8
Layer 1
10
-103.000000
20
185.024002
70
0
0
VERTEX
8
Layer 1
10
-103.000000
20
189.120003
70
0
0
VERTEX
8
Layer 1
10
-103.000000
20
197.311996
70
0
0
VERTEX
8
Layer 1
10
-103.000000
20
205.503998
70
0
0
VERTEX
8
Layer 1
10
-103.000000
20
213.695999
70
0
0
VERTEX
8
Layer 1
10
-103.000000
20
221.888000
70
0
0
VERTEX
8
Layer 1
10
-103.000000
20
230.080002
70
0
0
VERTEX
8
Layer 1
10
-103.000000
20
238.272003
70
0
0
VERTEX
8
Layer 1
10
-103.000000
20
246.463997
70
0
0
VERTEX
8
Layer 1
10
-103.000000
20
254.655998
70
0
0
VERTEX
8
Layer 1
10
-103.000000
20
262.848000
70
0
0
VERTEX
8
Layer 1
10
-103.000000
20
271.040001
70
0
0
VERTEX
8
Layer 1
10
-103.000000
20
279.231998
70
0
0
VERTEX
8
Layer 1
10
-103.000000
20
287.424000
70
0
0
VERTEX
8
Layer 1
10
-103.000000
20
295.615999
70
0
0
VERTEX
8
Layer 1
10
-103.000000
20
303.808000
70
0
0
VERTEX
8
Layer 1
10
-103.000000
20
312.000000
70
0
0
VERTEX
8
Layer 1
10
-103.000000
20
320.192000
70
0
0
VERTEX
8
Layer 1
10
-103.000000
20
328.384001
70
0
0
VERTEX
8
Layer 1
10
-103.000000
20
336.576000
70
0
0
VERTEX
8
Layer 1
10
-103.000000
20
344.768002
70
0
0
VERTEX
8
Layer 1
10
-103.000000
20
352.959999
70
0
0
VERTEX
8
Layer 1
10
-103.000000
20
361.152000
70
0
0
VERTEX
8
Layer 1
10
-103.000000
20
369.344002
70
0
0
VERTEX
8
Layer 1
10
-103.000000
20
377.536003
70
0
0
VERTEX
8
Layer 1
10
-103.000000
20
385.727997
70
0
0
VERTEX
8
Layer 1
10
-103.000000
20
393.919998
70
0
0
VERTEX
8
Layer 1
10
-103.000000
20
402.112000
70
0
0
VERTEX
8
Layer 1
10
-103.000000
20
410.304001
70
0
0
VERTEX
8
Layer 1
10
-103.000000
20
418.496002
70
0
0
VERTEX
8
Layer 1
10
-103.000000
20
426.688004
70
0
0
VERTEX
8
Layer 1
10
-103.000000
20
434.879997
70
0
0
VERTEX
8
Layer 1
10
-103.000000
20
443.072006
70
0
0
VERTEX
8
Layer 1
10
-103.000000
20
451.264008
70
0
0
VERTEX
8
Layer 1
10
-103.000000
20
459.455994
70
0
0
VERTEX
8
Layer 1
10
-103.000000
20
467.647995
70
0
0
VERTEX
8
Layer 1
10
-103.000000
20
475.839996
70
0
0
VERTEX
8
Layer 1
10
-103.000000
20
477.888000
70
0
0
VERTEX
8
Layer 1
10
-103.000000
20
478.250000
70
0
0
VERTEX
8
Layer 1
10
-102.992325
20
478.399994
70
0
0
VERTEX
8
Layer 1
10
-102.966133
20
478.912003
70
0
0
VERTEX
8
Layer 1
10
-102.939941
20
479.423996
70
0
0
VERTEX
8
Layer 1
10
-102.938004
20
479.462006
70
0
0
VERTEX
8
Layer 1
10
-102.864677
20
479.936005
70
0
0
VERTEX
8
Layer 1
10
-102.785477
20
480.447998
70
0
0
VERTEX
8
Layer 1
10
-102.754997
20
480.645004
70
0
0
VERTEX
8
Layer 1
10
-102.670853
20
480.960007
70
0
0
VERTEX
8
Layer 1
10
-102.455002
20
481.768005
70
0
0
VERTEX
8
Layer 1
10
-102.400002
20
481.907104
70
0
0
VERTEX
8
Layer 1
10
-102.369598
20
481.983994
70
0
0
VERTEX
8
Layer 1
10
-102.044998
20
482.804993
70
0
0
VERTEX
8
Layer 1
10
-101.933296
20
483.007996
70
0
0
VERTEX
8
Layer 1
10
-101.536003
20
483.729996
70
0
0
VERTEX
8
Layer 1
10
-101.307777
20
484.031998
70
0
0
VERTEX
8
Layer 1
10
-100.939003
20
484.520004
70
0
0
VERTEX
8
Layer 1
10
-100.351997
20
485.077164
70
0
0
VERTEX
8
Layer 1
10
-100.269997
20
485.154999
70
0
0
VERTEX
8
Layer 1
10
-99.544998
20
485.621002
70
0
0
VERTEX
8
Layer 1
10
-99.328003
20
485.701767
70
0
0
VERTEX
8
Layer 1
10
-98.781998
20
485.904999
70
0
0
VERTEX
8
Layer 1
10
-98.304001
20
485.963074
70
0
0
VERTEX
8
Layer 1
10
-98.000000
20
486.000000
70
0
0
VERTEX
8
Layer 1
10
-90.112000
20
486.000000
70
0
0
VERTEX
8
Layer 1
10
-81.919998
20
486.000000
70
0
0
VERTEX
8
Layer 1
10
-73.727997
20
486.000000
70
0
0
VERTEX
8
Layer 1
10
-65.536003
20
486.000000
70
0
0
VERTEX
8
Layer 1
10
-57.344002
20
486.000000
70
0
0
VERTEX
8
Layer 1
10
-49.152000
20
486.000000
70
0
0
VERTEX
8
Layer 1
10
-40.959999
20
486.000000
70
0
0
VERTEX
8
Layer 1
10
-32.768002
20
486.000000
70
0
0
VERTEX
8
Layer 1
10
-24.576000
20
486.000000
70
0
0
VERTEX
8
Layer 1
10
-16.384001
20
486.000000
70
0
0
VERTEX
8
Layer 1
10
-8.192000
20
486.000000
70
0
0
VERTEX
8
Layer 1
10
0.000000
20
486.000000
70
0
0
VERTEX
8
Layer 1
10
8.192000
20
486.000000
70
0
0
VERTEX
8
Layer 1
10
16.384001
20
486.000000
70
0
0
VERTEX
8
Layer 1
10
24.576000
20
486.000000
70
0
0
VERTEX
8
Layer 1
10
32.768002
20
486.000000
70
0
0
VERTEX
8
Layer 1
10
40.959999
20
486.000000
70
0
0
VERTEX
8
Layer 1
10
49.152000
20
486.000000
70
0
0
VERTEX
8
Layer 1
10
57.344002
20
486.000000
70
0
0
VERTEX
8
Layer 1
10
65.536003
20
486.000000
70
0
0
VERTEX
8
Layer 1
10
73.727997
20
486.000000
70
0
0
VERTEX
8
Layer 1
10
81.919998
20
486.000000
70
0
0
VERTEX
8
Layer 1
10
90.112000
20
486.000000
70
0
0
VERTEX
8
Layer 1
10
92.000000
20
486.000000
70
0
0
VERTEX
8
Layer 1
10
92.160004
20
485.980560
70
0
0
VERTEX
8
Layer 1
10
92.781998
20
485.904999
70
0
0
VERTEX
8
Layer 1
10
93.183998
20
485.755371
70
0
0
VERTEX
8
Layer 1
10
93.544998
20
485.621002
70
0
0
VERTEX
8
Layer 1
10
94.208000
20
485.194855
70
0
0
VERTEX
8
Layer 1
10
94.269997
20
485.154999
70
0
0
VERTEX
8
Layer 1
10
94.939003
20
484.520004
70
0
0
VERTEX
8
Layer 1
10
94.939003
20
484.520004
70
0
0
SEQEND
8
Layer 1
 0 
ENDSEC
 0 
EOF