999
"DXF R12 Output" (www.mydxf.blogspot.com)
 0 
SECTION
 2 
HEADER
 9 
$ACADVER
 1 
AC1009
 9 
$EXTMIN
 10 
 0 
 20 
 0 
 9 
$EXTMAX
 10 
 8.5 
 20 
 11 
 0 
ENDSEC
 0 
SECTION
 2 
ENTITIES
0
POLYLINE
8
Layer 1
62
10
70
0
10
0.000000
20
0.000000
66
1
0
VERTEX
8
Layer 1
10
99.544998
20
1624.791992
70
0
0
VERTEX
8
Layer 1
10
99.991455
20
1623.880005
70
0
0
VERTEX
8
Layer 1
10
100.269997
20
1623.310974
70
0
0
VERTEX
8
Layer 1
10
100.759102
20
1621.831970
70
0
0
VERTEX
8
Layer 1
10
100.939003
20
1621.288025
70
0
0
VERTEX
8
Layer 1
10
101.296013
20
1619.783997
70
0
0
VERTEX
8
Layer 1
10
101.536003
20
1618.773010
70
0
0
VERTEX
8
Layer 1
10
101.715294
20
1617.736023
70
0
0
VERTEX
8
Layer 1
10
102.044998
20
1615.828979
70
0
0
VERTEX
8
Layer 1
10
102.062508
20
1615.687988
70
0
0
VERTEX
8
Layer 1
10
102.189651
20
1614.664001
70
0
0
VERTEX
8
Layer 1
10
102.316803
20
1613.640015
70
0
0
VERTEX
8
Layer 1
10
102.400002
20
1612.969971
70
0
0
VERTEX
8
Layer 1
10
102.455002
20
1612.526978
70
0
0
VERTEX
8
Layer 1
10
102.533417
20
1611.591980
70
0
0
VERTEX
8
Layer 1
10
102.705185
20
1609.544006
70
0
0
VERTEX
8
Layer 1
10
102.754997
20
1608.950012
70
0
0
VERTEX
8
Layer 1
10
102.825676
20
1607.495972
70
0
0
VERTEX
8
Layer 1
10
102.925217
20
1605.447998
70
0
0
VERTEX
8
Layer 1
10
102.938004
20
1605.184998
70
0
0
VERTEX
8
Layer 1
10
102.942001
20
1604.935974
70
0
0
VERTEX
8
Layer 1
10
102.950226
20
1604.424011
70
0
0
VERTEX
8
Layer 1
10
102.966667
20
1603.400024
70
0
0
VERTEX
8
Layer 1
10
102.999565
20
1601.351990
70
0
0
VERTEX
8
Layer 1
10
103.000000
20
1601.325012
70
0
0
VERTEX
8
Layer 1
10
103.000000
20
1599.304016
70
0
0
VERTEX
8
Layer 1
10
103.000000
20
1595.208008
70
0
0
VERTEX
8
Layer 1
10
103.000000
20
1587.015991
70
0
0
VERTEX
8
Layer 1
10
103.000000
20
1578.823975
70
0
0
VERTEX
8
Layer 1
10
103.000000
20
1570.632019
70
0
0
VERTEX
8
Layer 1
10
103.000000
20
1562.440002
70
0
0
VERTEX
8
Layer 1
10
103.000000
20
1554.247986
70
0
0
VERTEX
8
Layer 1
10
103.000000
20
1546.056030
70
0
0
VERTEX
8
Layer 1
10
103.000000
20
1537.864014
70
0
0
VERTEX
8
Layer 1
10
103.000000
20
1529.671997
70
0
0
VERTEX
8
Layer 1
10
103.000000
20
1521.479980
70
0
0
VERTEX
8
Layer 1
10
103.000000
20
1513.288025
70
0
0
VERTEX
8
Layer 1
10
103.000000
20
1505.096008
70
0
0
VERTEX
8
Layer 1
10
103.000000
20
1496.903992
70
0
0
VERTEX
8
Layer 1
10
103.000000
20
1488.712006
70
0
0
VERTEX
8
Layer 1
10
103.000000
20
1480.519989
70
0
0
VERTEX
8
Layer 1
10
103.000000
20
1472.328003
70
0
0
VERTEX
8
Layer 1
10
103.000000
20
1464.135986
70
0
0
VERTEX
8
Layer 1
10
103.000000
20
1455.944000
70
0
0
VERTEX
8
Layer 1
10
103.000000
20
1447.752014
70
0
0
VERTEX
8
Layer 1
10
103.000000
20
1439.559998
70
0
0
VERTEX
8
Layer 1
10
103.000000
20
1431.368011
70
0
0
VERTEX
8
Layer 1
10
103.000000
20
1423.175995
70
0
0
VERTEX
8
Layer 1
10
103.000000
20
1414.984009
70
0
0
VERTEX
8
Layer 1
10
103.000000
20
1406.791992
70
0
0
VERTEX
8
Layer 1
10
103.000000
20
1398.600006
70
0
0
VERTEX
8
Layer 1
10
103.000000
20
1390.407990
70
0
0
VERTEX
8
Layer 1
10
103.000000
20
1382.216003
70
0
0
VERTEX
8
Layer 1
10
103.000000
20
1374.023987
70
0
0
VERTEX
8
Layer 1
10
103.000000
20
1365.832001
70
0
0
VERTEX
8
Layer 1
10
103.000000
20
1357.640015
70
0
0
VERTEX
8
Layer 1
10
103.000000
20
1349.447998
70
0
0
VERTEX
8
Layer 1
10
103.000000
20
1341.256012
70
0
0
VERTEX
8
Layer 1
10
103.000000
20
1333.063995
70
0
0
VERTEX
8
Layer 1
10
103.000000
20
1324.872009
70
0
0
VERTEX
8
Layer 1
10
103.000000
20
1316.679993
70
0
0
VERTEX
8
Layer 1
10
103.000000
20
1308.488007
70
0
0
VERTEX
8
Layer 1
10
103.000000
20
1300.295990
70
0
0
VERTEX
8
Layer 1
10
103.000000
20
1292.104004
70
0
0
VERTEX
8
Layer 1
10
103.000000
20
1283.911987
70
0
0
VERTEX
8
Layer 1
10
103.000000
20
1275.720001
70
0
0
VERTEX
8
Layer 1
10
103.000000
20
1267.528015
70
0
0
VERTEX
8
Layer 1
10
103.000000
20
1259.335999
70
0
0
VERTEX
8
Layer 1
10
103.000000
20
1251.144012
70
0
0
VERTEX
8
Layer 1
10
103.000000
20
1242.951996
70
0
0
VERTEX
8
Layer 1
10
103.000000
20
1234.759995
70
0
0
VERTEX
8
Layer 1
10
103.000000
20
1226.567993
70
0
0
VERTEX
8
Layer 1
10
103.000000
20
1218.376007
70
0
0
VERTEX
8
Layer 1
10
103.000000
20
1210.184006
70
0
0
VERTEX
8
Layer 1
10
103.000000
20
1201.992004
70
0
0
VERTEX
8
Layer 1
10
103.000000
20
1193.800003
70
0
0
VERTEX
8
Layer 1
10
103.000000
20
1185.608002
70
0
0
VERTEX
8
Layer 1
10
103.000000
20
1177.416000
70
0
0
VERTEX
8
Layer 1
10
103.000000
20
1169.223999
70
0
0
VERTEX
8
Layer 1
10
103.000000
20
1161.031998
70
0
0
VERTEX
8
Layer 1
10
103.000000
20
1152.839996
70
0
0
VERTEX
8
Layer 1
10
103.000000
20
1144.647995
70
0
0
VERTEX
8
Layer 1
10
103.000000
20
1136.455994
70
0
0
VERTEX
8
Layer 1
10
103.000000
20
1128.264008
70
0
0
VERTEX
8
Layer 1
10
103.000000
20
1120.072006
70
0
0
VERTEX
8
Layer 1
10
103.000000
20
1111.879997
70
0
0
VERTEX
8
Layer 1
10
103.000000
20
1103.688004
70
0
0
VERTEX
8
Layer 1
10
103.000000
20
1095.496002
70
0
0
VERTEX
8
Layer 1
10
103.000000
20
1087.304001
70
0
0
VERTEX
8
Layer 1
10
103.000000
20
1079.112000
70
0
0
VERTEX
8
Layer 1
10
103.000000
20
1070.919998
70
0
0
VERTEX
8
Layer 1
10
103.000000
20
1062.727997
70
0
0
VERTEX
8
Layer 1
10
103.000000
20
1054.536003
70
0
0
VERTEX
8
Layer 1
10
103.000000
20
1046.344002
70
0
0
VERTEX
8
Layer 1
10
103.000000
20
1038.152000
70
0
0
VERTEX
8
Layer 1
10
103.000000
20
1029.959999
70
0
0
VERTEX
8
Layer 1
10
103.000000
20
1021.768002
70
0
0
VERTEX
8
Layer 1
10
103.000000
20
1013.576000
70
0
0
VERTEX
8
Layer 1
10
103.000000
20
1005.384001
70
0
0
VERTEX
8
Layer 1
10
103.000000
20
997.192000
70
0
0
VERTEX
8
Layer 1
10
103.000000
20
989.000000
70
0
0
VERTEX
8
Layer 1
10
103.000000
20
980.808000
70
0
0
VERTEX
8
Layer 1
10
103.000000
20
972.615999
70
0
0
VERTEX
8
Layer 1
10
103.000000
20
964.424000
70
0
0
VERTEX
8
Layer 1
10
103.000000
20
956.231998
70
0
0
VERTEX
8
Layer 1
10
103.000000
20
948.040001
70
0
0
VERTEX
8
Layer 1
10
103.000000
20
939.848000
70
0
0
VERTEX
8
Layer 1
10
103.000000
20
931.655998
70
0
0
VERTEX
8
Layer 1
10
103.000000
20
923.463997
70
0
0
VERTEX
8
Layer 1
10
103.000000
20
915.272003
70
0
0
VERTEX
8
Layer 1
10
103.000000
20
907.080002
70
0
0
VERTEX
8
Layer 1
10
103.000000
20
898.888000
70
0
0
VERTEX
8
Layer 1
10
103.000000
20
890.695999
70
0
0
VERTEX
8
Layer 1
10
103.000000
20
882.503998
70
0
0
VERTEX
8
Layer 1
10
103.000000
20
874.311996
70
0
0
VERTEX
8
Layer 1
10
103.000000
20
866.120003
70
0
0
VERTEX
8
Layer 1
10
103.000000
20
857.927994
70
0
0
VERTEX
8
Layer 1
10
103.000000
20
849.735992
70
0
0
VERTEX
8
Layer 1
10
103.000000
20
841.544006
70
0
0
VERTEX
8
Layer 1
10
103.000000
20
833.352005
70
0
0
VERTEX
8
Layer 1
10
103.000000
20
825.160004
70
0
0
VERTEX
8
Layer 1
10
103.000000
20
816.968002
70
0
0
VERTEX
8
Layer 1
10
103.000000
20
808.776001
70
0
0
VERTEX
8
Layer 1
10
103.000000
20
800.584000
70
0
0
VERTEX
8
Layer 1
10
103.000000
20
792.391998
70
0
0
VERTEX
8
Layer 1
10
103.000000
20
784.199997
70
0
0
VERTEX
8
Layer 1
10
103.000000
20
776.007996
70
0
0
VERTEX
8
Layer 1
10
103.000000
20
767.815994
70
0
0
VERTEX
8
Layer 1
10
103.000000
20
759.623993
70
0
0
VERTEX
8
Layer 1
10
103.000000
20
751.432007
70
0
0
VERTEX
8
Layer 1
10
103.000000
20
743.240005
70
0
0
VERTEX
8
Layer 1
10
103.000000
20
735.048004
70
0
0
VERTEX
8
Layer 1
10
103.000000
20
726.855988
70
0
0
VERTEX
8
Layer 1
10
103.000000
20
718.664001
70
0
0
VERTEX
8
Layer 1
10
103.000000
20
710.471985
70
0
0
VERTEX
8
Layer 1
10
103.000000
20
702.279999
70
0
0
VERTEX
8
Layer 1
10
103.000000
20
694.088013
70
0
0
VERTEX
8
Layer 1
10
103.000000
20
685.895996
70
0
0
VERTEX
8
Layer 1
10
103.000000
20
677.704010
70
0
0
VERTEX
8
Layer 1
10
103.000000
20
669.511993
70
0
0
VERTEX
8
Layer 1
10
103.000000
20
665.415985
70
0
0
VERTEX
8
Layer 1
10
103.000000
20
663.674988
70
0
0
VERTEX
8
Layer 1
10
102.995071
20
663.368011
70
0
0
VERTEX
8
Layer 1
10
102.962173
20
661.320007
70
0
0
VERTEX
8
Layer 1
10
102.945724
20
660.295990
70
0
0
VERTEX
8
Layer 1
10
102.938004
20
659.815002
70
0
0
VERTEX
8
Layer 1
10
102.911606
20
659.272003
70
0
0
VERTEX
8
Layer 1
10
102.812065
20
657.223999
70
0
0
VERTEX
8
Layer 1
10
102.754997
20
656.049988
70
0
0
VERTEX
8
Layer 1
10
102.681702
20
655.175995
70
0
0
VERTEX
8
Layer 1
10
102.509933
20
653.127991
70
0
0
VERTEX
8
Layer 1
10
102.455002
20
652.472992
70
0
0
VERTEX
8
Layer 1
10
102.400002
20
652.030060
70
0
0
VERTEX
8
Layer 1
10
102.282036
20
651.079987
70
0
0
VERTEX
8
Layer 1
10
102.044998
20
649.170990
70
0
0
VERTEX
8
Layer 1
10
102.020966
20
649.032013
70
0
0
VERTEX
8
Layer 1
10
101.666878
20
646.984009
70
0
0
VERTEX
8
Layer 1
10
101.536003
20
646.226990
70
0
0
VERTEX
8
Layer 1
10
101.229546
20
644.936005
70
0
0
VERTEX
8
Layer 1
10
100.939003
20
643.712006
70
0
0
VERTEX
8
Layer 1
10
100.666504
20
642.888000
70
0
0
VERTEX
8
Layer 1
10
100.269997
20
641.688995
70
0
0
VERTEX
8
Layer 1
10
99.854385
20
640.839996
70
0
0
VERTEX
8
Layer 1
10
99.544998
20
640.208008
70
0
0
VERTEX
8
Layer 1
10
98.781998
20
639.303986
70
0
0
VERTEX
8
Layer 1
10
98.304001
20
639.118164
70
0
0
VERTEX
8
Layer 1
10
98.000000
20
639.000000
70
0
0
VERTEX
8
Layer 1
10
90.112000
20
639.000000
70
0
0
VERTEX
8
Layer 1
10
81.919998
20
639.000000
70
0
0
VERTEX
8
Layer 1
10
65.536003
20
639.000000
70
0
0
VERTEX
8
Layer 1
10
49.152000
20
639.000000
70
0
0
VERTEX
8
Layer 1
10
32.768002
20
639.000000
70
0
0
VERTEX
8
Layer 1
10
16.384001
20
639.000000
70
0
0
VERTEX
8
Layer 1
10
0.000000
20
639.000000
70
0
0
VERTEX
8
Layer 1
10
-16.384001
20
639.000000
70
0
0
VERTEX
8
Layer 1
10
-32.768002
20
639.000000
70
0
0
VERTEX
8
Layer 1
10
-49.152000
20
639.000000
70
0
0
VERTEX
8
Layer 1
10
-65.536003
20
639.000000
70
0
0
VERTEX
8
Layer 1
10
-81.919998
20
639.000000
70
0
0
VERTEX
8
Layer 1
10
-90.112000
20
639.000000
70
0
0
VERTEX
8
Layer 1
10
-92.000000
20
639.000000
70
0
0
VERTEX
8
Layer 1
10
-92.781998
20
639.303986
70
0
0
VERTEX
8
Layer 1
10
-93.544998
20
640.208008
70
0
0
VERTEX
8
Layer 1
10
-93.854385
20
640.839996
70
0
0
VERTEX
8
Layer 1
10
-94.208000
20
641.562347
70
0
0
VERTEX
8
Layer 1
10
-94.269997
20
641.688995
70
0
0
VERTEX
8
Layer 1
10
-94.939003
20
643.712006
70
0
0
VERTEX
8
Layer 1
10
-95.229546
20
644.936005
70
0
0
VERTEX
8
Layer 1
10
-95.536003
20
646.226990
70
0
0
VERTEX
8
Layer 1
10
-95.666878
20
646.984009
70
0
0
VERTEX
8
Layer 1
10
-96.020966
20
649.032013
70
0
0
VERTEX
8
Layer 1
10
-96.044998
20
649.170990
70
0
0
VERTEX
8
Layer 1
10
-96.154884
20
650.056000
70
0
0
VERTEX
8
Layer 1
10
-96.255997
20
650.870331
70
0
0
VERTEX
8
Layer 1
10
-96.282036
20
651.079987
70
0
0
VERTEX
8
Layer 1
10
-96.455002
20
652.472992
70
0
0
VERTEX
8
Layer 1
10
-96.509933
20
653.127991
70
0
0
VERTEX
8
Layer 1
10
-96.681702
20
655.175995
70
0
0
VERTEX
8
Layer 1
10
-96.754997
20
656.049988
70
0
0
VERTEX
8
Layer 1
10
-96.762291
20
656.200012
70
0
0
VERTEX
8
Layer 1
10
-96.812065
20
657.223999
70
0
0
VERTEX
8
Layer 1
10
-96.911606
20
659.272003
70
0
0
VERTEX
8
Layer 1
10
-96.936493
20
659.783997
70
0
0
VERTEX
8
Layer 1
10
-96.938004
20
659.815002
70
0
0
VERTEX
8
Layer 1
10
-96.945724
20
660.295990
70
0
0
VERTEX
8
Layer 1
10
-96.962173
20
661.320007
70
0
0
VERTEX
8
Layer 1
10
-96.978622
20
662.343994
70
0
0
VERTEX
8
Layer 1
10
-96.995071
20
663.368011
70
0
0
VERTEX
8
Layer 1
10
-97.000000
20
663.674988
70
0
0
VERTEX
8
Layer 1
10
-97.000000
20
665.415985
70
0
0
VERTEX
8
Layer 1
10
-97.000000
20
669.511993
70
0
0
VERTEX
8
Layer 1
10
-97.000000
20
677.704010
70
0
0
VERTEX
8
Layer 1
10
-97.000000
20
685.895996
70
0
0
VERTEX
8
Layer 1
10
-97.000000
20
694.088013
70
0
0
VERTEX
8
Layer 1
10
-97.000000
20
702.279999
70
0
0
VERTEX
8
Layer 1
10
-97.000000
20
710.471985
70
0
0
VERTEX
8
Layer 1
10
-97.000000
20
718.664001
70
0
0
VERTEX
8
Layer 1
10
-97.000000
20
726.855988
70
0
0
VERTEX
8
Layer 1
10
-97.000000
20
735.048004
70
0
0
VERTEX
8
Layer 1
10
-97.000000
20
743.240005
70
0
0
VERTEX
8
Layer 1
10
-97.000000
20
751.432007
70
0
0
VERTEX
8
Layer 1
10
-97.000000
20
759.623993
70
0
0
VERTEX
8
Layer 1
10
-97.000000
20
767.815994
70
0
0
VERTEX
8
Layer 1
10
-97.000000
20
776.007996
70
0
0
VERTEX
8
Layer 1
10
-97.000000
20
784.199997
70
0
0
VERTEX
8
Layer 1
10
-97.000000
20
792.391998
70
0
0
VERTEX
8
Layer 1
10
-97.000000
20
800.584000
70
0
0
VERTEX
8
Layer 1
10
-97.000000
20
808.776001
70
0
0
VERTEX
8
Layer 1
10
-97.000000
20
816.968002
70
0
0
VERTEX
8
Layer 1
10
-97.000000
20
825.160004
70
0
0
VERTEX
8
Layer 1
10
-97.000000
20
833.352005
70
0
0
VERTEX
8
Layer 1
10
-97.000000
20
841.544006
70
0
0
VERTEX
8
Layer 1
10
-97.000000
20
849.735992
70
0
0
VERTEX
8
Layer 1
10
-97.000000
20
857.927994
70
0
0
VERTEX
8
Layer 1
10
-97.000000
20
866.120003
70
0
0
VERTEX
8
Layer 1
10
-97.000000
20
874.311996
70
0
0
VERTEX
8
Layer 1
10
-97.000000
20
882.503998
70
0
0
VERTEX
8
Layer 1
10
-97.000000
20
890.695999
70
0
0
VERTEX
8
Layer 1
10
-97.000000
20
898.888000
70
0
0
VERTEX
8
Layer 1
10
-97.000000
20
907.080002
70
0
0
VERTEX
8
Layer 1
10
-97.000000
20
915.272003
70
0
0
VERTEX
8
Layer 1
10
-97.000000
20
923.463997
70
0
0
VERTEX
8
Layer 1
10
-97.000000
20
931.655998
70
0
0
VERTEX
8
Layer 1
10
-97.000000
20
939.848000
70
0
0
VERTEX
8
Layer 1
10
-97.000000
20
948.040001
70
0
0
VERTEX
8
Layer 1
10
-97.000000
20
956.231998
70
0
0
VERTEX
8
Layer 1
10
-97.000000
20
964.424000
70
0
0
VERTEX
8
Layer 1
10
-97.000000
20
972.615999
70
0
0
VERTEX
8
Layer 1
10
-97.000000
20
980.808000
70
0
0
VERTEX
8
Layer 1
10
-97.000000
20
989.000000
70
0
0
VERTEX
8
Layer 1
10
-97.000000
20
997.192000
70
0
0
VERTEX
8
Layer 1
10
-97.000000
20
1005.384001
70
0
0
VERTEX
8
Layer 1
10
-97.000000
20
1013.576000
70
0
0
VERTEX
8
Layer 1
10
-97.000000
20
1021.768002
70
0
0
VERTEX
8
Layer 1
10
-97.000000
20
1029.959999
70
0
0
VERTEX
8
Layer 1
10
-97.000000
20
1038.152000
70
0
0
VERTEX
8
Layer 1
10
-97.000000
20
1046.344002
70
0
0
VERTEX
8
Layer 1
10
-97.000000
20
1054.536003
70
0
0
VERTEX
8
Layer 1
10
-97.000000
20
1062.727997
70
0
0
VERTEX
8
Layer 1
10
-97.000000
20
1070.919998
70
0
0
VERTEX
8
Layer 1
10
-97.000000
20
1079.112000
70
0
0
VERTEX
8
Layer 1
10
-97.000000
20
1087.304001
70
0
0
VERTEX
8
Layer 1
10
-97.000000
20
1095.496002
70
0
0
VERTEX
8
Layer 1
10
-97.000000
20
1103.688004
70
0
0
VERTEX
8
Layer 1
10
-97.000000
20
1111.879997
70
0
0
VERTEX
8
Layer 1
10
-97.000000
20
1120.072006
70
0
0
VERTEX
8
Layer 1
10
-97.000000
20
1128.264008
70
0
0
VERTEX
8
Layer 1
10
-97.000000
20
1136.455994
70
0
0
VERTEX
8
Layer 1
10
-97.000000
20
1144.647995
70
0
0
VERTEX
8
Layer 1
10
-97.000000
20
1152.839996
70
0
0
VERTEX
8
Layer 1
10
-97.000000
20
1161.031998
70
0
0
VERTEX
8
Layer 1
10
-97.000000
20
1169.223999
70
0
0
VERTEX
8
Layer 1
10
-97.000000
20
1177.416000
70
0
0
VERTEX
8
Layer 1
10
-97.000000
20
1185.608002
70
0
0
VERTEX
8
Layer 1
10
-97.000000
20
1193.800003
70
0
0
VERTEX
8
Layer 1
10
-97.000000
20
1201.992004
70
0
0
VERTEX
8
Layer 1
10
-97.000000
20
1210.184006
70
0
0
VERTEX
8
Layer 1
10
-97.000000
20
1218.376007
70
0
0
VERTEX
8
Layer 1
10
-97.000000
20
1226.567993
70
0
0
VERTEX
8
Layer 1
10
-97.000000
20
1234.759995
70
0
0
VERTEX
8
Layer 1
10
-97.000000
20
1242.951996
70
0
0
VERTEX
8
Layer 1
10
-97.000000
20
1251.144012
70
0
0
VERTEX
8
Layer 1
10
-97.000000
20
1259.335999
70
0
0
VERTEX
8
Layer 1
10
-97.000000
20
1267.528015
70
0
0
VERTEX
8
Layer 1
10
-97.000000
20
1275.720001
70
0
0
VERTEX
8
Layer 1
10
-97.000000
20
1283.911987
70
0
0
VERTEX
8
Layer 1
10
-97.000000
20
1292.104004
70
0
0
VERTEX
8
Layer 1
10
-97.000000
20
1300.295990
70
0
0
VERTEX
8
Layer 1
10
-97.000000
20
1308.488007
70
0
0
VERTEX
8
Layer 1
10
-97.000000
20
1316.679993
70
0
0
VERTEX
8
Layer 1
10
-97.000000
20
1324.872009
70
0
0
VERTEX
8
Layer 1
10
-97.000000
20
1333.063995
70
0
0
VERTEX
8
Layer 1
10
-97.000000
20
1341.256012
70
0
0
VERTEX
8
Layer 1
10
-97.000000
20
1349.447998
70
0
0
VERTEX
8
Layer 1
10
-97.000000
20
1357.640015
70
0
0
VERTEX
8
Layer 1
10
-97.000000
20
1365.832001
70
0
0
VERTEX
8
Layer 1
10
-97.000000
20
1374.023987
70
0
0
VERTEX
8
Layer 1
10
-97.000000
20
1382.216003
70
0
0
VERTEX
8
Layer 1
10
-97.000000
20
1390.407990
70
0
0
VERTEX
8
Layer 1
10
-97.000000
20
1398.600006
70
0
0
VERTEX
8
Layer 1
10
-97.000000
20
1406.791992
70
0
0
VERTEX
8
Layer 1
10
-97.000000
20
1414.984009
70
0
0
VERTEX
8
Layer 1
10
-97.000000
20
1423.175995
70
0
0
VERTEX
8
Layer 1
10
-97.000000
20
1431.368011
70
0
0
VERTEX
8
Layer 1
10
-97.000000
20
1439.559998
70
0
0
VERTEX
8
Layer 1
10
-97.000000
20
1447.752014
70
0
0
VERTEX
8
Layer 1
10
-97.000000
20
1455.944000
70
0
0
VERTEX
8
Layer 1
10
-97.000000
20
1464.135986
70
0
0
VERTEX
8
Layer 1
10
-97.000000
20
1472.328003
70
0
0
VERTEX
8
Layer 1
10
-97.000000
20
1480.519989
70
0
0
VERTEX
8
Layer 1
10
-97.000000
20
1488.712006
70
0
0
VERTEX
8
Layer 1
10
-97.000000
20
1496.903992
70
0
0
VERTEX
8
Layer 1
10
-97.000000
20
1505.096008
70
0
0
VERTEX
8
Layer 1
10
-97.000000
20
1513.288025
70
0
0
VERTEX
8
Layer 1
10
-97.000000
20
1521.479980
70
0
0
VERTEX
8
Layer 1
10
-97.000000
20
1529.671997
70
0
0
VERTEX
8
Layer 1
10
-97.000000
20
1537.864014
70
0
0
VERTEX
8
Layer 1
10
-97.000000
20
1546.056030
70
0
0
VERTEX
8
Layer 1
10
-97.000000
20
1554.247986
70
0
0
VERTEX
8
Layer 1
10
-97.000000
20
1562.440002
70
0
0
VERTEX
8
Layer 1
10
-97.000000
20
1570.632019
70
0
0
VERTEX
8
Layer 1
10
-97.000000
20
1578.823975
70
0
0
VERTEX
8
Layer 1
10
-97.000000
20
1587.015991
70
0
0
VERTEX
8
Layer 1
10
-97.000000
20
1595.208008
70
0
0
VERTEX
8
Layer 1
10
-97.000000
20
1599.304016
70
0
0
VERTEX
8
Layer 1
10
-97.000000
20
1601.325012
70
0
0
VERTEX
8
Layer 1
10
-96.999565
20
1601.351990
70
0
0
VERTEX
8
Layer 1
10
-96.966667
20
1603.400024
70
0
0
VERTEX
8
Layer 1
10
-96.950226
20
1604.424011
70
0
0
VERTEX
8
Layer 1
10
-96.942001
20
1604.935974
70
0
0
VERTEX
8
Layer 1
10
-96.938004
20
1605.184998
70
0
0
VERTEX
8
Layer 1
10
-96.925217
20
1605.447998
70
0
0
VERTEX
8
Layer 1
10
-96.825676
20
1607.495972
70
0
0
VERTEX
8
Layer 1
10
-96.754997
20
1608.950012
70
0
0
VERTEX
8
Layer 1
10
-96.705185
20
1609.544006
70
0
0
VERTEX
8
Layer 1
10
-96.533417
20
1611.591980
70
0
0
VERTEX
8
Layer 1
10
-96.455002
20
1612.526978
70
0
0
VERTEX
8
Layer 1
10
-96.316803
20
1613.640015
70
0
0
VERTEX
8
Layer 1
10
-96.255997
20
1614.129700
70
0
0
VERTEX
8
Layer 1
10
-96.189651
20
1614.664001
70
0
0
VERTEX
8
Layer 1
10
-96.062508
20
1615.687988
70
0
0
VERTEX
8
Layer 1
10
-96.044998
20
1615.828979
70
0
0
VERTEX
8
Layer 1
10
-95.715294
20
1617.736023
70
0
0
VERTEX
8
Layer 1
10
-95.536003
20
1618.773010
70
0
0
VERTEX
8
Layer 1
10
-95.296013
20
1619.783997
70
0
0
VERTEX
8
Layer 1
10
-94.939003
20
1621.288025
70
0
0
VERTEX
8
Layer 1
10
-94.269997
20
1623.310974
70
0
0
VERTEX
8
Layer 1
10
-94.208000
20
1623.437622
70
0
0
VERTEX
8
Layer 1
10
-93.991455
20
1623.880005
70
0
0
VERTEX
8
Layer 1
10
-93.544998
20
1624.791992
70
0
0
VERTEX
8
Layer 1
10
-92.781998
20
1625.695984
70
0
0
VERTEX
8
Layer 1
10
-92.000000
20
1626.000000
70
0
0
VERTEX
8
Layer 1
10
-90.112000
20
1626.000000
70
0
0
VERTEX
8
Layer 1
10
-81.919998
20
1626.000000
70
0
0
VERTEX
8
Layer 1
10
-73.727997
20
1626.000000
70
0
0
VERTEX
8
Layer 1
10
-65.536003
20
1626.000000
70
0
0
VERTEX
8
Layer 1
10
-57.344002
20
1626.000000
70
0
0
VERTEX
8
Layer 1
10
-49.152000
20
1626.000000
70
0
0
VERTEX
8
Layer 1
10
-40.959999
20
1626.000000
70
0
0
VERTEX
8
Layer 1
10
-32.768002
20
1626.000000
70
0
0
VERTEX
8
Layer 1
10
-24.576000
20
1626.000000
70
0
0
VERTEX
8
Layer 1
10
-16.384001
20
1626.000000
70
0
0
VERTEX
8
Layer 1
10
-8.192000
20
1626.000000
70
0
0
VERTEX
8
Layer 1
10
0.000000
20
1626.000000
70
0
0
VERTEX
8
Layer 1
10
8.192000
20
1626.000000
70
0
0
VERTEX
8
Layer 1
10
16.384001
20
1626.000000
70
0
0
VERTEX
8
Layer 1
10
24.576000
20
1626.000000
70
0
0
VERTEX
8
Layer 1
10
32.768002
20
1626.000000
70
0
0
VERTEX
8
Layer 1
10
40.959999
20
1626.000000
70
0
0
VERTEX
8
Layer 1
10
49.152000
20
1626.000000
70
0
0
VERTEX
8
Layer 1
10
57.344002
20
1626.000000
70
0
0
VERTEX
8
Layer 1
10
65.536003
20
1626.000000
70
0
0
VERTEX
8
Layer 1
10
73.727997
20
1626.000000
70
0
0
VERTEX
8
Layer 1
10
81.919998
20
1626.000000
70
0
0
VERTEX
8
Layer 1
10
90.112000
20
1626.000000
70
0
0
VERTEX
8
Layer 1
10
98.000000
20
1626.000000
70
0
0
VERTEX
8
Layer 1
10
98.304001
20
1625.881836
70
0
0
VERTEX
8
Layer 1
10
98.781998
20
1625.695984
70
0
0
VERTEX
8
Layer 1
10
99.544998
20
1624.791992
70
0
0
VERTEX
8
Layer 1
10
99.544998
20
1624.791992
70
0
0
SEQEND
8
Layer 1
 0 
ENDSEC
 0 
EOF