999
"DXF R12 Output" (www.mydxf.blogspot.com)
 0 
SECTION
 2 
HEADER
 9 
$ACADVER
 1 
AC1009
 9 
$EXTMIN
 10 
 0 
 20 
 0 
 9 
$EXTMAX
 10 
 8.5 
 20 
 11 
 0 
ENDSEC
 0 
SECTION
 2 
ENTITIES
0
POLYLINE
8
Layer 1
62
10
70
0
10
0.000000
20
0.000000
66
1
0
VERTEX
8
Layer 1
10
145.804993
20
1728.288025
70
0
0
VERTEX
8
Layer 1
10
146.543533
20
1726.280029
70
0
0
VERTEX
8
Layer 1
10
146.729996
20
1725.773010
70
0
0
VERTEX
8
Layer 1
10
147.143509
20
1724.231995
70
0
0
VERTEX
8
Layer 1
10
147.455994
20
1723.067505
70
0
0
VERTEX
8
Layer 1
10
147.520004
20
1722.828979
70
0
0
VERTEX
8
Layer 1
10
147.644043
20
1722.184021
70
0
0
VERTEX
8
Layer 1
10
148.037888
20
1720.135986
70
0
0
VERTEX
8
Layer 1
10
148.154999
20
1719.526978
70
0
0
VERTEX
8
Layer 1
10
148.342468
20
1718.088013
70
0
0
VERTEX
8
Layer 1
10
148.609268
20
1716.039978
70
0
0
VERTEX
8
Layer 1
10
148.621002
20
1715.950012
70
0
0
VERTEX
8
Layer 1
10
148.691452
20
1715.015991
70
0
0
VERTEX
8
Layer 1
10
148.768692
20
1713.992004
70
0
0
VERTEX
8
Layer 1
10
148.845932
20
1712.968018
70
0
0
VERTEX
8
Layer 1
10
148.904999
20
1712.184998
70
0
0
VERTEX
8
Layer 1
10
148.910934
20
1711.943970
70
0
0
VERTEX
8
Layer 1
10
148.936127
20
1710.919983
70
0
0
VERTEX
8
Layer 1
10
148.961334
20
1709.895996
70
0
0
VERTEX
8
Layer 1
10
148.986542
20
1708.872009
70
0
0
VERTEX
8
Layer 1
10
149.000000
20
1708.325012
70
0
0
VERTEX
8
Layer 1
10
149.000000
20
1707.848022
70
0
0
VERTEX
8
Layer 1
10
149.000000
20
1705.799988
70
0
0
VERTEX
8
Layer 1
10
149.000000
20
1701.703979
70
0
0
VERTEX
8
Layer 1
10
149.000000
20
1693.512024
70
0
0
VERTEX
8
Layer 1
10
149.000000
20
1677.127991
70
0
0
VERTEX
8
Layer 1
10
149.000000
20
1660.744019
70
0
0
VERTEX
8
Layer 1
10
149.000000
20
1644.359985
70
0
0
VERTEX
8
Layer 1
10
149.000000
20
1627.976013
70
0
0
VERTEX
8
Layer 1
10
149.000000
20
1611.591980
70
0
0
VERTEX
8
Layer 1
10
149.000000
20
1595.208008
70
0
0
VERTEX
8
Layer 1
10
149.000000
20
1578.823975
70
0
0
VERTEX
8
Layer 1
10
149.000000
20
1562.440002
70
0
0
VERTEX
8
Layer 1
10
149.000000
20
1546.056030
70
0
0
VERTEX
8
Layer 1
10
149.000000
20
1529.671997
70
0
0
VERTEX
8
Layer 1
10
149.000000
20
1513.288025
70
0
0
VERTEX
8
Layer 1
10
149.000000
20
1496.903992
70
0
0
VERTEX
8
Layer 1
10
149.000000
20
1480.519989
70
0
0
VERTEX
8
Layer 1
10
149.000000
20
1464.135986
70
0
0
VERTEX
8
Layer 1
10
149.000000
20
1447.752014
70
0
0
VERTEX
8
Layer 1
10
149.000000
20
1431.368011
70
0
0
VERTEX
8
Layer 1
10
149.000000
20
1414.984009
70
0
0
VERTEX
8
Layer 1
10
149.000000
20
1398.600006
70
0
0
VERTEX
8
Layer 1
10
149.000000
20
1382.216003
70
0
0
VERTEX
8
Layer 1
10
149.000000
20
1365.832001
70
0
0
VERTEX
8
Layer 1
10
149.000000
20
1349.447998
70
0
0
VERTEX
8
Layer 1
10
149.000000
20
1333.063995
70
0
0
VERTEX
8
Layer 1
10
149.000000
20
1316.679993
70
0
0
VERTEX
8
Layer 1
10
149.000000
20
1300.295990
70
0
0
VERTEX
8
Layer 1
10
149.000000
20
1283.911987
70
0
0
VERTEX
8
Layer 1
10
149.000000
20
1267.528015
70
0
0
VERTEX
8
Layer 1
10
149.000000
20
1251.144012
70
0
0
VERTEX
8
Layer 1
10
149.000000
20
1234.759995
70
0
0
VERTEX
8
Layer 1
10
149.000000
20
1218.376007
70
0
0
VERTEX
8
Layer 1
10
149.000000
20
1201.992004
70
0
0
VERTEX
8
Layer 1
10
149.000000
20
1185.608002
70
0
0
VERTEX
8
Layer 1
10
149.000000
20
1169.223999
70
0
0
VERTEX
8
Layer 1
10
149.000000
20
1152.839996
70
0
0
VERTEX
8
Layer 1
10
149.000000
20
1136.455994
70
0
0
VERTEX
8
Layer 1
10
149.000000
20
1120.072006
70
0
0
VERTEX
8
Layer 1
10
149.000000
20
1103.688004
70
0
0
VERTEX
8
Layer 1
10
149.000000
20
1087.304001
70
0
0
VERTEX
8
Layer 1
10
149.000000
20
1070.919998
70
0
0
VERTEX
8
Layer 1
10
149.000000
20
1054.536003
70
0
0
VERTEX
8
Layer 1
10
149.000000
20
1038.152000
70
0
0
VERTEX
8
Layer 1
10
149.000000
20
1021.768002
70
0
0
VERTEX
8
Layer 1
10
149.000000
20
1005.384001
70
0
0
VERTEX
8
Layer 1
10
149.000000
20
989.000000
70
0
0
VERTEX
8
Layer 1
10
149.000000
20
972.615999
70
0
0
VERTEX
8
Layer 1
10
149.000000
20
956.231998
70
0
0
VERTEX
8
Layer 1
10
149.000000
20
939.848000
70
0
0
VERTEX
8
Layer 1
10
149.000000
20
923.463997
70
0
0
VERTEX
8
Layer 1
10
149.000000
20
907.080002
70
0
0
VERTEX
8
Layer 1
10
149.000000
20
890.695999
70
0
0
VERTEX
8
Layer 1
10
149.000000
20
874.311996
70
0
0
VERTEX
8
Layer 1
10
149.000000
20
857.927994
70
0
0
VERTEX
8
Layer 1
10
149.000000
20
841.544006
70
0
0
VERTEX
8
Layer 1
10
149.000000
20
825.160004
70
0
0
VERTEX
8
Layer 1
10
149.000000
20
808.776001
70
0
0
VERTEX
8
Layer 1
10
149.000000
20
792.391998
70
0
0
VERTEX
8
Layer 1
10
149.000000
20
776.007996
70
0
0
VERTEX
8
Layer 1
10
149.000000
20
771.912003
70
0
0
VERTEX
8
Layer 1
10
149.000000
20
770.675003
70
0
0
VERTEX
8
Layer 1
10
148.980042
20
769.863998
70
0
0
VERTEX
8
Layer 1
10
148.954834
20
768.839996
70
0
0
VERTEX
8
Layer 1
10
148.929642
20
767.815994
70
0
0
VERTEX
8
Layer 1
10
148.904999
20
766.815002
70
0
0
VERTEX
8
Layer 1
10
148.903259
20
766.792007
70
0
0
VERTEX
8
Layer 1
10
148.826019
20
765.768005
70
0
0
VERTEX
8
Layer 1
10
148.671539
20
763.720001
70
0
0
VERTEX
8
Layer 1
10
148.621002
20
763.050003
70
0
0
VERTEX
8
Layer 1
10
148.441483
20
761.671997
70
0
0
VERTEX
8
Layer 1
10
148.174667
20
759.623993
70
0
0
VERTEX
8
Layer 1
10
148.154999
20
759.473007
70
0
0
VERTEX
8
Layer 1
10
147.520004
20
756.171005
70
0
0
VERTEX
8
Layer 1
10
147.455994
20
755.932495
70
0
0
VERTEX
8
Layer 1
10
147.347458
20
755.528000
70
0
0
VERTEX
8
Layer 1
10
146.797897
20
753.479996
70
0
0
VERTEX
8
Layer 1
10
146.729996
20
753.227005
70
0
0
VERTEX
8
Layer 1
10
146.069550
20
751.432007
70
0
0
VERTEX
8
Layer 1
10
145.804993
20
750.712997
70
0
0
VERTEX
8
Layer 1
10
144.768005
20
748.688995
70
0
0
VERTEX
8
Layer 1
10
143.742065
20
747.335999
70
0
0
VERTEX
8
Layer 1
10
143.645004
20
747.207993
70
0
0
VERTEX
8
Layer 1
10
143.360001
20
746.990219
70
0
0
VERTEX
8
Layer 1
10
142.462006
20
746.304001
70
0
0
VERTEX
8
Layer 1
10
141.250000
20
746.000000
70
0
0
VERTEX
8
Layer 1
10
139.264008
20
746.000000
70
0
0
VERTEX
8
Layer 1
10
131.072006
20
746.000000
70
0
0
VERTEX
8
Layer 1
10
122.879997
20
746.000000
70
0
0
VERTEX
8
Layer 1
10
114.688004
20
746.000000
70
0
0
VERTEX
8
Layer 1
10
106.496002
20
746.000000
70
0
0
VERTEX
8
Layer 1
10
98.304001
20
746.000000
70
0
0
VERTEX
8
Layer 1
10
90.112000
20
746.000000
70
0
0
VERTEX
8
Layer 1
10
81.919998
20
746.000000
70
0
0
VERTEX
8
Layer 1
10
73.727997
20
746.000000
70
0
0
VERTEX
8
Layer 1
10
65.536003
20
746.000000
70
0
0
VERTEX
8
Layer 1
10
57.344002
20
746.000000
70
0
0
VERTEX
8
Layer 1
10
49.152000
20
746.000000
70
0
0
VERTEX
8
Layer 1
10
40.959999
20
746.000000
70
0
0
VERTEX
8
Layer 1
10
32.768002
20
746.000000
70
0
0
VERTEX
8
Layer 1
10
24.576000
20
746.000000
70
0
0
VERTEX
8
Layer 1
10
16.384001
20
746.000000
70
0
0
VERTEX
8
Layer 1
10
8.192000
20
746.000000
70
0
0
VERTEX
8
Layer 1
10
0.000000
20
746.000000
70
0
0
VERTEX
8
Layer 1
10
-8.192000
20
746.000000
70
0
0
VERTEX
8
Layer 1
10
-16.384001
20
746.000000
70
0
0
VERTEX
8
Layer 1
10
-24.576000
20
746.000000
70
0
0
VERTEX
8
Layer 1
10
-32.768002
20
746.000000
70
0
0
VERTEX
8
Layer 1
10
-40.959999
20
746.000000
70
0
0
VERTEX
8
Layer 1
10
-49.152000
20
746.000000
70
0
0
VERTEX
8
Layer 1
10
-57.344002
20
746.000000
70
0
0
VERTEX
8
Layer 1
10
-65.536003
20
746.000000
70
0
0
VERTEX
8
Layer 1
10
-73.727997
20
746.000000
70
0
0
VERTEX
8
Layer 1
10
-81.919998
20
746.000000
70
0
0
VERTEX
8
Layer 1
10
-90.112000
20
746.000000
70
0
0
VERTEX
8
Layer 1
10
-98.304001
20
746.000000
70
0
0
VERTEX
8
Layer 1
10
-106.496002
20
746.000000
70
0
0
VERTEX
8
Layer 1
10
-114.688004
20
746.000000
70
0
0
VERTEX
8
Layer 1
10
-122.879997
20
746.000000
70
0
0
VERTEX
8
Layer 1
10
-131.072006
20
746.000000
70
0
0
VERTEX
8
Layer 1
10
-139.264008
20
746.000000
70
0
0
VERTEX
8
Layer 1
10
-147.455994
20
746.000000
70
0
0
VERTEX
8
Layer 1
10
-151.552002
20
746.000000
70
0
0
VERTEX
8
Layer 1
10
-153.250000
20
746.000000
70
0
0
VERTEX
8
Layer 1
10
-154.462006
20
746.304001
70
0
0
VERTEX
8
Layer 1
10
-155.645004
20
747.207993
70
0
0
VERTEX
8
Layer 1
10
-155.647995
20
747.211960
70
0
0
VERTEX
8
Layer 1
10
-156.768005
20
748.688995
70
0
0
VERTEX
8
Layer 1
10
-157.804993
20
750.712997
70
0
0
VERTEX
8
Layer 1
10
-158.069550
20
751.432007
70
0
0
VERTEX
8
Layer 1
10
-158.729996
20
753.227005
70
0
0
VERTEX
8
Layer 1
10
-158.797897
20
753.479996
70
0
0
VERTEX
8
Layer 1
10
-159.347458
20
755.528000
70
0
0
VERTEX
8
Layer 1
10
-159.520004
20
756.171005
70
0
0
VERTEX
8
Layer 1
10
-159.744003
20
757.335800
70
0
0
VERTEX
8
Layer 1
10
-160.154999
20
759.473007
70
0
0
VERTEX
8
Layer 1
10
-160.174667
20
759.623993
70
0
0
VERTEX
8
Layer 1
10
-160.441483
20
761.671997
70
0
0
VERTEX
8
Layer 1
10
-160.621002
20
763.050003
70
0
0
VERTEX
8
Layer 1
10
-160.671539
20
763.720001
70
0
0
VERTEX
8
Layer 1
10
-160.748779
20
764.744003
70
0
0
VERTEX
8
Layer 1
10
-160.826019
20
765.768005
70
0
0
VERTEX
8
Layer 1
10
-160.903259
20
766.792007
70
0
0
VERTEX
8
Layer 1
10
-160.904999
20
766.815002
70
0
0
VERTEX
8
Layer 1
10
-160.929642
20
767.815994
70
0
0
VERTEX
8
Layer 1
10
-160.954834
20
768.839996
70
0
0
VERTEX
8
Layer 1
10
-160.980042
20
769.863998
70
0
0
VERTEX
8
Layer 1
10
-161.000000
20
770.675003
70
0
0
VERTEX
8
Layer 1
10
-161.000000
20
771.912003
70
0
0
VERTEX
8
Layer 1
10
-161.000000
20
776.007996
70
0
0
VERTEX
8
Layer 1
10
-161.000000
20
784.199997
70
0
0
VERTEX
8
Layer 1
10
-161.000000
20
792.391998
70
0
0
VERTEX
8
Layer 1
10
-161.000000
20
800.584000
70
0
0
VERTEX
8
Layer 1
10
-161.000000
20
808.776001
70
0
0
VERTEX
8
Layer 1
10
-161.000000
20
816.968002
70
0
0
VERTEX
8
Layer 1
10
-161.000000
20
825.160004
70
0
0
VERTEX
8
Layer 1
10
-161.000000
20
833.352005
70
0
0
VERTEX
8
Layer 1
10
-161.000000
20
841.544006
70
0
0
VERTEX
8
Layer 1
10
-161.000000
20
849.735992
70
0
0
VERTEX
8
Layer 1
10
-161.000000
20
857.927994
70
0
0
VERTEX
8
Layer 1
10
-161.000000
20
866.120003
70
0
0
VERTEX
8
Layer 1
10
-161.000000
20
874.311996
70
0
0
VERTEX
8
Layer 1
10
-161.000000
20
882.503998
70
0
0
VERTEX
8
Layer 1
10
-161.000000
20
890.695999
70
0
0
VERTEX
8
Layer 1
10
-161.000000
20
898.888000
70
0
0
VERTEX
8
Layer 1
10
-161.000000
20
907.080002
70
0
0
VERTEX
8
Layer 1
10
-161.000000
20
915.272003
70
0
0
VERTEX
8
Layer 1
10
-161.000000
20
923.463997
70
0
0
VERTEX
8
Layer 1
10
-161.000000
20
931.655998
70
0
0
VERTEX
8
Layer 1
10
-161.000000
20
939.848000
70
0
0
VERTEX
8
Layer 1
10
-161.000000
20
948.040001
70
0
0
VERTEX
8
Layer 1
10
-161.000000
20
956.231998
70
0
0
VERTEX
8
Layer 1
10
-161.000000
20
964.424000
70
0
0
VERTEX
8
Layer 1
10
-161.000000
20
972.615999
70
0
0
VERTEX
8
Layer 1
10
-161.000000
20
980.808000
70
0
0
VERTEX
8
Layer 1
10
-161.000000
20
989.000000
70
0
0
VERTEX
8
Layer 1
10
-161.000000
20
997.192000
70
0
0
VERTEX
8
Layer 1
10
-161.000000
20
1005.384001
70
0
0
VERTEX
8
Layer 1
10
-161.000000
20
1013.576000
70
0
0
VERTEX
8
Layer 1
10
-161.000000
20
1021.768002
70
0
0
VERTEX
8
Layer 1
10
-161.000000
20
1029.959999
70
0
0
VERTEX
8
Layer 1
10
-161.000000
20
1038.152000
70
0
0
VERTEX
8
Layer 1
10
-161.000000
20
1046.344002
70
0
0
VERTEX
8
Layer 1
10
-161.000000
20
1054.536003
70
0
0
VERTEX
8
Layer 1
10
-161.000000
20
1062.727997
70
0
0
VERTEX
8
Layer 1
10
-161.000000
20
1070.919998
70
0
0
VERTEX
8
Layer 1
10
-161.000000
20
1079.112000
70
0
0
VERTEX
8
Layer 1
10
-161.000000
20
1087.304001
70
0
0
VERTEX
8
Layer 1
10
-161.000000
20
1095.496002
70
0
0
VERTEX
8
Layer 1
10
-161.000000
20
1103.688004
70
0
0
VERTEX
8
Layer 1
10
-161.000000
20
1111.879997
70
0
0
VERTEX
8
Layer 1
10
-161.000000
20
1120.072006
70
0
0
VERTEX
8
Layer 1
10
-161.000000
20
1128.264008
70
0
0
VERTEX
8
Layer 1
10
-161.000000
20
1136.455994
70
0
0
VERTEX
8
Layer 1
10
-161.000000
20
1144.647995
70
0
0
VERTEX
8
Layer 1
10
-161.000000
20
1152.839996
70
0
0
VERTEX
8
Layer 1
10
-161.000000
20
1161.031998
70
0
0
VERTEX
8
Layer 1
10
-161.000000
20
1169.223999
70
0
0
VERTEX
8
Layer 1
10
-161.000000
20
1177.416000
70
0
0
VERTEX
8
Layer 1
10
-161.000000
20
1185.608002
70
0
0
VERTEX
8
Layer 1
10
-161.000000
20
1193.800003
70
0
0
VERTEX
8
Layer 1
10
-161.000000
20
1201.992004
70
0
0
VERTEX
8
Layer 1
10
-161.000000
20
1210.184006
70
0
0
VERTEX
8
Layer 1
10
-161.000000
20
1218.376007
70
0
0
VERTEX
8
Layer 1
10
-161.000000
20
1226.567993
70
0
0
VERTEX
8
Layer 1
10
-161.000000
20
1234.759995
70
0
0
VERTEX
8
Layer 1
10
-161.000000
20
1242.951996
70
0
0
VERTEX
8
Layer 1
10
-161.000000
20
1251.144012
70
0
0
VERTEX
8
Layer 1
10
-161.000000
20
1259.335999
70
0
0
VERTEX
8
Layer 1
10
-161.000000
20
1267.528015
70
0
0
VERTEX
8
Layer 1
10
-161.000000
20
1275.720001
70
0
0
VERTEX
8
Layer 1
10
-161.000000
20
1283.911987
70
0
0
VERTEX
8
Layer 1
10
-161.000000
20
1292.104004
70
0
0
VERTEX
8
Layer 1
10
-161.000000
20
1300.295990
70
0
0
VERTEX
8
Layer 1
10
-161.000000
20
1308.488007
70
0
0
VERTEX
8
Layer 1
10
-161.000000
20
1316.679993
70
0
0
VERTEX
8
Layer 1
10
-161.000000
20
1324.872009
70
0
0
VERTEX
8
Layer 1
10
-161.000000
20
1333.063995
70
0
0
VERTEX
8
Layer 1
10
-161.000000
20
1341.256012
70
0
0
VERTEX
8
Layer 1
10
-161.000000
20
1349.447998
70
0
0
VERTEX
8
Layer 1
10
-161.000000
20
1357.640015
70
0
0
VERTEX
8
Layer 1
10
-161.000000
20
1365.832001
70
0
0
VERTEX
8
Layer 1
10
-161.000000
20
1374.023987
70
0
0
VERTEX
8
Layer 1
10
-161.000000
20
1382.216003
70
0
0
VERTEX
8
Layer 1
10
-161.000000
20
1390.407990
70
0
0
VERTEX
8
Layer 1
10
-161.000000
20
1398.600006
70
0
0
VERTEX
8
Layer 1
10
-161.000000
20
1406.791992
70
0
0
VERTEX
8
Layer 1
10
-161.000000
20
1414.984009
70
0
0
VERTEX
8
Layer 1
10
-161.000000
20
1423.175995
70
0
0
VERTEX
8
Layer 1
10
-161.000000
20
1431.368011
70
0
0
VERTEX
8
Layer 1
10
-161.000000
20
1439.559998
70
0
0
VERTEX
8
Layer 1
10
-161.000000
20
1447.752014
70
0
0
VERTEX
8
Layer 1
10
-161.000000
20
1455.944000
70
0
0
VERTEX
8
Layer 1
10
-161.000000
20
1464.135986
70
0
0
VERTEX
8
Layer 1
10
-161.000000
20
1472.328003
70
0
0
VERTEX
8
Layer 1
10
-161.000000
20
1480.519989
70
0
0
VERTEX
8
Layer 1
10
-161.000000
20
1488.712006
70
0
0
VERTEX
8
Layer 1
10
-161.000000
20
1496.903992
70
0
0
VERTEX
8
Layer 1
10
-161.000000
20
1505.096008
70
0
0
VERTEX
8
Layer 1
10
-161.000000
20
1513.288025
70
0
0
VERTEX
8
Layer 1
10
-161.000000
20
1521.479980
70
0
0
VERTEX
8
Layer 1
10
-161.000000
20
1529.671997
70
0
0
VERTEX
8
Layer 1
10
-161.000000
20
1537.864014
70
0
0
VERTEX
8
Layer 1
10
-161.000000
20
1546.056030
70
0
0
VERTEX
8
Layer 1
10
-161.000000
20
1554.247986
70
0
0
VERTEX
8
Layer 1
10
-161.000000
20
1562.440002
70
0
0
VERTEX
8
Layer 1
10
-161.000000
20
1570.632019
70
0
0
VERTEX
8
Layer 1
10
-161.000000
20
1578.823975
70
0
0
VERTEX
8
Layer 1
10
-161.000000
20
1587.015991
70
0
0
VERTEX
8
Layer 1
10
-161.000000
20
1595.208008
70
0
0
VERTEX
8
Layer 1
10
-161.000000
20
1603.400024
70
0
0
VERTEX
8
Layer 1
10
-161.000000
20
1611.591980
70
0
0
VERTEX
8
Layer 1
10
-161.000000
20
1619.783997
70
0
0
VERTEX
8
Layer 1
10
-161.000000
20
1627.976013
70
0
0
VERTEX
8
Layer 1
10
-161.000000
20
1636.168030
70
0
0
VERTEX
8
Layer 1
10
-161.000000
20
1644.359985
70
0
0
VERTEX
8
Layer 1
10
-161.000000
20
1652.552002
70
0
0
VERTEX
8
Layer 1
10
-161.000000
20
1660.744019
70
0
0
VERTEX
8
Layer 1
10
-161.000000
20
1668.935974
70
0
0
VERTEX
8
Layer 1
10
-161.000000
20
1677.127991
70
0
0
VERTEX
8
Layer 1
10
-161.000000
20
1685.320007
70
0
0
VERTEX
8
Layer 1
10
-161.000000
20
1693.512024
70
0
0
VERTEX
8
Layer 1
10
-161.000000
20
1701.703979
70
0
0
VERTEX
8
Layer 1
10
-161.000000
20
1705.799988
70
0
0
VERTEX
8
Layer 1
10
-161.000000
20
1708.325012
70
0
0
VERTEX
8
Layer 1
10
-160.961334
20
1709.895996
70
0
0
VERTEX
8
Layer 1
10
-160.936127
20
1710.919983
70
0
0
VERTEX
8
Layer 1
10
-160.910934
20
1711.943970
70
0
0
VERTEX
8
Layer 1
10
-160.904999
20
1712.184998
70
0
0
VERTEX
8
Layer 1
10
-160.768692
20
1713.992004
70
0
0
VERTEX
8
Layer 1
10
-160.621002
20
1715.950012
70
0
0
VERTEX
8
Layer 1
10
-160.609268
20
1716.039978
70
0
0
VERTEX
8
Layer 1
10
-160.342468
20
1718.088013
70
0
0
VERTEX
8
Layer 1
10
-160.154999
20
1719.526978
70
0
0
VERTEX
8
Layer 1
10
-159.744003
20
1721.664185
70
0
0
VERTEX
8
Layer 1
10
-159.644043
20
1722.184021
70
0
0
VERTEX
8
Layer 1
10
-159.520004
20
1722.828979
70
0
0
VERTEX
8
Layer 1
10
-159.143509
20
1724.231995
70
0
0
VERTEX
8
Layer 1
10
-158.729996
20
1725.773010
70
0
0
VERTEX
8
Layer 1
10
-158.543533
20
1726.280029
70
0
0
VERTEX
8
Layer 1
10
-157.804993
20
1728.288025
70
0
0
VERTEX
8
Layer 1
10
-156.768005
20
1730.310974
70
0
0
VERTEX
8
Layer 1
10
-155.647995
20
1731.788025
70
0
0
VERTEX
8
Layer 1
10
-155.645004
20
1731.791992
70
0
0
VERTEX
8
Layer 1
10
-154.462006
20
1732.695984
70
0
0
VERTEX
8
Layer 1
10
-153.250000
20
1733.000000
70
0
0
VERTEX
8
Layer 1
10
-151.552002
20
1733.000000
70
0
0
VERTEX
8
Layer 1
10
-147.455994
20
1733.000000
70
0
0
VERTEX
8
Layer 1
10
-131.072006
20
1733.000000
70
0
0
VERTEX
8
Layer 1
10
-114.688004
20
1733.000000
70
0
0
VERTEX
8
Layer 1
10
-98.304001
20
1733.000000
70
0
0
VERTEX
8
Layer 1
10
-81.919998
20
1733.000000
70
0
0
VERTEX
8
Layer 1
10
-65.536003
20
1733.000000
70
0
0
VERTEX
8
Layer 1
10
-49.152000
20
1733.000000
70
0
0
VERTEX
8
Layer 1
10
-32.768002
20
1733.000000
70
0
0
VERTEX
8
Layer 1
10
-16.384001
20
1733.000000
70
0
0
VERTEX
8
Layer 1
10
0.000000
20
1733.000000
70
0
0
VERTEX
8
Layer 1
10
16.384001
20
1733.000000
70
0
0
VERTEX
8
Layer 1
10
32.768002
20
1733.000000
70
0
0
VERTEX
8
Layer 1
10
49.152000
20
1733.000000
70
0
0
VERTEX
8
Layer 1
10
65.536003
20
1733.000000
70
0
0
VERTEX
8
Layer 1
10
81.919998
20
1733.000000
70
0
0
VERTEX
8
Layer 1
10
98.304001
20
1733.000000
70
0
0
VERTEX
8
Layer 1
10
114.688004
20
1733.000000
70
0
0
VERTEX
8
Layer 1
10
131.072006
20
1733.000000
70
0
0
VERTEX
8
Layer 1
10
139.264008
20
1733.000000
70
0
0
VERTEX
8
Layer 1
10
141.250000
20
1733.000000
70
0
0
VERTEX
8
Layer 1
10
142.462006
20
1732.695984
70
0
0
VERTEX
8
Layer 1
10
143.360001
20
1732.009766
70
0
0
VERTEX
8
Layer 1
10
143.645004
20
1731.791992
70
0
0
VERTEX
8
Layer 1
10
144.718719
20
1730.375977
70
0
0
VERTEX
8
Layer 1
10
144.768005
20
1730.310974
70
0
0
VERTEX
8
Layer 1
10
145.784500
20
1728.328003
70
0
0
VERTEX
8
Layer 1
10
145.804993
20
1728.288025
70
0
0
VERTEX
8
Layer 1
10
145.804993
20
1728.288025
70
0
0
SEQEND
8
Layer 1
 0 
ENDSEC
 0 
EOF