999
"DXF R12 Output" (www.mydxf.blogspot.com)
 0 
SECTION
 2 
HEADER
 9 
$ACADVER
 1 
AC1009
 9 
$EXTMIN
 10 
 0 
 20 
 0 
 9 
$EXTMAX
 10 
 8.5 
 20 
 11 
 0 
ENDSEC
 0 
SECTION
 2 
ENTITIES
0
POLYLINE
8
Layer 1
62
10
70
0
10
0.000000
20
0.000000
66
1
0
VERTEX
8
Layer 1
10
83.544998
20
1563.791992
70
0
0
VERTEX
8
Layer 1
10
84.206848
20
1562.440002
70
0
0
VERTEX
8
Layer 1
10
84.269997
20
1562.310974
70
0
0
VERTEX
8
Layer 1
10
84.904610
20
1560.392029
70
0
0
VERTEX
8
Layer 1
10
84.939003
20
1560.288025
70
0
0
VERTEX
8
Layer 1
10
85.400459
20
1558.343994
70
0
0
VERTEX
8
Layer 1
10
85.536003
20
1557.773010
70
0
0
VERTEX
8
Layer 1
10
85.791367
20
1556.296021
70
0
0
VERTEX
8
Layer 1
10
86.015999
20
1554.996704
70
0
0
VERTEX
8
Layer 1
10
86.044998
20
1554.828979
70
0
0
VERTEX
8
Layer 1
10
86.117142
20
1554.247986
70
0
0
VERTEX
8
Layer 1
10
86.371437
20
1552.200012
70
0
0
VERTEX
8
Layer 1
10
86.455002
20
1551.526978
70
0
0
VERTEX
8
Layer 1
10
86.570320
20
1550.151978
70
0
0
VERTEX
8
Layer 1
10
86.742081
20
1548.104004
70
0
0
VERTEX
8
Layer 1
10
86.754997
20
1547.950012
70
0
0
VERTEX
8
Layer 1
10
86.797287
20
1547.080017
70
0
0
VERTEX
8
Layer 1
10
86.847061
20
1546.056030
70
0
0
VERTEX
8
Layer 1
10
86.896828
20
1545.031982
70
0
0
VERTEX
8
Layer 1
10
86.921715
20
1544.520020
70
0
0
VERTEX
8
Layer 1
10
86.938004
20
1544.184998
70
0
0
VERTEX
8
Layer 1
10
86.940842
20
1544.007996
70
0
0
VERTEX
8
Layer 1
10
86.949066
20
1543.495972
70
0
0
VERTEX
8
Layer 1
10
86.957291
20
1542.984009
70
0
0
VERTEX
8
Layer 1
10
86.965515
20
1542.471985
70
0
0
VERTEX
8
Layer 1
10
86.973740
20
1541.960022
70
0
0
VERTEX
8
Layer 1
10
86.990189
20
1540.935974
70
0
0
VERTEX
8
Layer 1
10
87.000000
20
1540.325012
70
0
0
VERTEX
8
Layer 1
10
87.000000
20
1539.911987
70
0
0
VERTEX
8
Layer 1
10
87.000000
20
1537.864014
70
0
0
VERTEX
8
Layer 1
10
87.000000
20
1529.671997
70
0
0
VERTEX
8
Layer 1
10
87.000000
20
1521.479980
70
0
0
VERTEX
8
Layer 1
10
87.000000
20
1513.288025
70
0
0
VERTEX
8
Layer 1
10
87.000000
20
1505.096008
70
0
0
VERTEX
8
Layer 1
10
87.000000
20
1496.903992
70
0
0
VERTEX
8
Layer 1
10
87.000000
20
1488.712006
70
0
0
VERTEX
8
Layer 1
10
87.000000
20
1480.519989
70
0
0
VERTEX
8
Layer 1
10
87.000000
20
1472.328003
70
0
0
VERTEX
8
Layer 1
10
87.000000
20
1464.135986
70
0
0
VERTEX
8
Layer 1
10
87.000000
20
1455.944000
70
0
0
VERTEX
8
Layer 1
10
87.000000
20
1447.752014
70
0
0
VERTEX
8
Layer 1
10
87.000000
20
1439.559998
70
0
0
VERTEX
8
Layer 1
10
87.000000
20
1431.368011
70
0
0
VERTEX
8
Layer 1
10
87.000000
20
1423.175995
70
0
0
VERTEX
8
Layer 1
10
87.000000
20
1414.984009
70
0
0
VERTEX
8
Layer 1
10
87.000000
20
1406.791992
70
0
0
VERTEX
8
Layer 1
10
87.000000
20
1398.600006
70
0
0
VERTEX
8
Layer 1
10
87.000000
20
1390.407990
70
0
0
VERTEX
8
Layer 1
10
87.000000
20
1382.216003
70
0
0
VERTEX
8
Layer 1
10
87.000000
20
1374.023987
70
0
0
VERTEX
8
Layer 1
10
87.000000
20
1365.832001
70
0
0
VERTEX
8
Layer 1
10
87.000000
20
1357.640015
70
0
0
VERTEX
8
Layer 1
10
87.000000
20
1349.447998
70
0
0
VERTEX
8
Layer 1
10
87.000000
20
1341.256012
70
0
0
VERTEX
8
Layer 1
10
87.000000
20
1333.063995
70
0
0
VERTEX
8
Layer 1
10
87.000000
20
1324.872009
70
0
0
VERTEX
8
Layer 1
10
87.000000
20
1316.679993
70
0
0
VERTEX
8
Layer 1
10
87.000000
20
1308.488007
70
0
0
VERTEX
8
Layer 1
10
87.000000
20
1300.295990
70
0
0
VERTEX
8
Layer 1
10
87.000000
20
1292.104004
70
0
0
VERTEX
8
Layer 1
10
87.000000
20
1283.911987
70
0
0
VERTEX
8
Layer 1
10
87.000000
20
1275.720001
70
0
0
VERTEX
8
Layer 1
10
87.000000
20
1267.528015
70
0
0
VERTEX
8
Layer 1
10
87.000000
20
1259.335999
70
0
0
VERTEX
8
Layer 1
10
87.000000
20
1251.144012
70
0
0
VERTEX
8
Layer 1
10
87.000000
20
1242.951996
70
0
0
VERTEX
8
Layer 1
10
87.000000
20
1234.759995
70
0
0
VERTEX
8
Layer 1
10
87.000000
20
1226.567993
70
0
0
VERTEX
8
Layer 1
10
87.000000
20
1218.376007
70
0
0
VERTEX
8
Layer 1
10
87.000000
20
1210.184006
70
0
0
VERTEX
8
Layer 1
10
87.000000
20
1201.992004
70
0
0
VERTEX
8
Layer 1
10
87.000000
20
1193.800003
70
0
0
VERTEX
8
Layer 1
10
87.000000
20
1185.608002
70
0
0
VERTEX
8
Layer 1
10
87.000000
20
1177.416000
70
0
0
VERTEX
8
Layer 1
10
87.000000
20
1169.223999
70
0
0
VERTEX
8
Layer 1
10
87.000000
20
1161.031998
70
0
0
VERTEX
8
Layer 1
10
87.000000
20
1152.839996
70
0
0
VERTEX
8
Layer 1
10
87.000000
20
1144.647995
70
0
0
VERTEX
8
Layer 1
10
87.000000
20
1136.455994
70
0
0
VERTEX
8
Layer 1
10
87.000000
20
1128.264008
70
0
0
VERTEX
8
Layer 1
10
87.000000
20
1120.072006
70
0
0
VERTEX
8
Layer 1
10
87.000000
20
1111.879997
70
0
0
VERTEX
8
Layer 1
10
87.000000
20
1103.688004
70
0
0
VERTEX
8
Layer 1
10
87.000000
20
1095.496002
70
0
0
VERTEX
8
Layer 1
10
87.000000
20
1087.304001
70
0
0
VERTEX
8
Layer 1
10
87.000000
20
1079.112000
70
0
0
VERTEX
8
Layer 1
10
87.000000
20
1070.919998
70
0
0
VERTEX
8
Layer 1
10
87.000000
20
1062.727997
70
0
0
VERTEX
8
Layer 1
10
87.000000
20
1054.536003
70
0
0
VERTEX
8
Layer 1
10
87.000000
20
1046.344002
70
0
0
VERTEX
8
Layer 1
10
87.000000
20
1038.152000
70
0
0
VERTEX
8
Layer 1
10
87.000000
20
1029.959999
70
0
0
VERTEX
8
Layer 1
10
87.000000
20
1021.768002
70
0
0
VERTEX
8
Layer 1
10
87.000000
20
1013.576000
70
0
0
VERTEX
8
Layer 1
10
87.000000
20
1005.384001
70
0
0
VERTEX
8
Layer 1
10
87.000000
20
997.192000
70
0
0
VERTEX
8
Layer 1
10
87.000000
20
989.000000
70
0
0
VERTEX
8
Layer 1
10
87.000000
20
980.808000
70
0
0
VERTEX
8
Layer 1
10
87.000000
20
972.615999
70
0
0
VERTEX
8
Layer 1
10
87.000000
20
964.424000
70
0
0
VERTEX
8
Layer 1
10
87.000000
20
956.231998
70
0
0
VERTEX
8
Layer 1
10
87.000000
20
948.040001
70
0
0
VERTEX
8
Layer 1
10
87.000000
20
939.848000
70
0
0
VERTEX
8
Layer 1
10
87.000000
20
931.655998
70
0
0
VERTEX
8
Layer 1
10
87.000000
20
923.463997
70
0
0
VERTEX
8
Layer 1
10
87.000000
20
915.272003
70
0
0
VERTEX
8
Layer 1
10
87.000000
20
907.080002
70
0
0
VERTEX
8
Layer 1
10
87.000000
20
898.888000
70
0
0
VERTEX
8
Layer 1
10
87.000000
20
890.695999
70
0
0
VERTEX
8
Layer 1
10
87.000000
20
882.503998
70
0
0
VERTEX
8
Layer 1
10
87.000000
20
874.311996
70
0
0
VERTEX
8
Layer 1
10
87.000000
20
866.120003
70
0
0
VERTEX
8
Layer 1
10
87.000000
20
857.927994
70
0
0
VERTEX
8
Layer 1
10
87.000000
20
849.735992
70
0
0
VERTEX
8
Layer 1
10
87.000000
20
841.544006
70
0
0
VERTEX
8
Layer 1
10
87.000000
20
833.352005
70
0
0
VERTEX
8
Layer 1
10
87.000000
20
825.160004
70
0
0
VERTEX
8
Layer 1
10
87.000000
20
816.968002
70
0
0
VERTEX
8
Layer 1
10
87.000000
20
808.776001
70
0
0
VERTEX
8
Layer 1
10
87.000000
20
800.584000
70
0
0
VERTEX
8
Layer 1
10
87.000000
20
792.391998
70
0
0
VERTEX
8
Layer 1
10
87.000000
20
784.199997
70
0
0
VERTEX
8
Layer 1
10
87.000000
20
776.007996
70
0
0
VERTEX
8
Layer 1
10
87.000000
20
767.815994
70
0
0
VERTEX
8
Layer 1
10
87.000000
20
759.623993
70
0
0
VERTEX
8
Layer 1
10
87.000000
20
751.432007
70
0
0
VERTEX
8
Layer 1
10
87.000000
20
743.240005
70
0
0
VERTEX
8
Layer 1
10
87.000000
20
735.048004
70
0
0
VERTEX
8
Layer 1
10
87.000000
20
726.855988
70
0
0
VERTEX
8
Layer 1
10
87.000000
20
718.664001
70
0
0
VERTEX
8
Layer 1
10
87.000000
20
710.471985
70
0
0
VERTEX
8
Layer 1
10
87.000000
20
702.279999
70
0
0
VERTEX
8
Layer 1
10
87.000000
20
694.088013
70
0
0
VERTEX
8
Layer 1
10
87.000000
20
685.895996
70
0
0
VERTEX
8
Layer 1
10
87.000000
20
677.704010
70
0
0
VERTEX
8
Layer 1
10
87.000000
20
669.511993
70
0
0
VERTEX
8
Layer 1
10
87.000000
20
661.320007
70
0
0
VERTEX
8
Layer 1
10
87.000000
20
653.127991
70
0
0
VERTEX
8
Layer 1
10
87.000000
20
644.936005
70
0
0
VERTEX
8
Layer 1
10
87.000000
20
636.743988
70
0
0
VERTEX
8
Layer 1
10
87.000000
20
628.552002
70
0
0
VERTEX
8
Layer 1
10
87.000000
20
620.359985
70
0
0
VERTEX
8
Layer 1
10
87.000000
20
612.167999
70
0
0
VERTEX
8
Layer 1
10
87.000000
20
603.976013
70
0
0
VERTEX
8
Layer 1
10
87.000000
20
602.674988
70
0
0
VERTEX
8
Layer 1
10
86.987999
20
601.928009
70
0
0
VERTEX
8
Layer 1
10
86.971558
20
600.903992
70
0
0
VERTEX
8
Layer 1
10
86.955109
20
599.880005
70
0
0
VERTEX
8
Layer 1
10
86.938660
20
598.855988
70
0
0
VERTEX
8
Layer 1
10
86.938004
20
598.815002
70
0
0
VERTEX
8
Layer 1
10
86.890221
20
597.832001
70
0
0
VERTEX
8
Layer 1
10
86.790680
20
595.783997
70
0
0
VERTEX
8
Layer 1
10
86.754997
20
595.049988
70
0
0
VERTEX
8
Layer 1
10
86.644798
20
593.735992
70
0
0
VERTEX
8
Layer 1
10
86.473030
20
591.687988
70
0
0
VERTEX
8
Layer 1
10
86.455002
20
591.472992
70
0
0
VERTEX
8
Layer 1
10
86.044998
20
588.170990
70
0
0
VERTEX
8
Layer 1
10
86.015999
20
588.003265
70
0
0
VERTEX
8
Layer 1
10
85.944893
20
587.592010
70
0
0
VERTEX
8
Layer 1
10
85.590805
20
585.544006
70
0
0
VERTEX
8
Layer 1
10
85.536003
20
585.226990
70
0
0
VERTEX
8
Layer 1
10
85.125099
20
583.496002
70
0
0
VERTEX
8
Layer 1
10
84.939003
20
582.712006
70
0
0
VERTEX
8
Layer 1
10
84.520996
20
581.447998
70
0
0
VERTEX
8
Layer 1
10
84.269997
20
580.688995
70
0
0
VERTEX
8
Layer 1
10
83.638992
20
579.399994
70
0
0
VERTEX
8
Layer 1
10
83.544998
20
579.208008
70
0
0
VERTEX
8
Layer 1
10
82.781998
20
578.303986
70
0
0
VERTEX
8
Layer 1
10
82.000000
20
578.000000
70
0
0
VERTEX
8
Layer 1
10
81.919998
20
578.000000
70
0
0
VERTEX
8
Layer 1
10
65.536003
20
578.000000
70
0
0
VERTEX
8
Layer 1
10
49.152000
20
578.000000
70
0
0
VERTEX
8
Layer 1
10
32.768002
20
578.000000
70
0
0
VERTEX
8
Layer 1
10
16.384001
20
578.000000
70
0
0
VERTEX
8
Layer 1
10
0.000000
20
578.000000
70
0
0
VERTEX
8
Layer 1
10
-16.384001
20
578.000000
70
0
0
VERTEX
8
Layer 1
10
-32.768002
20
578.000000
70
0
0
VERTEX
8
Layer 1
10
-49.152000
20
578.000000
70
0
0
VERTEX
8
Layer 1
10
-65.536003
20
578.000000
70
0
0
VERTEX
8
Layer 1
10
-81.919998
20
578.000000
70
0
0
VERTEX
8
Layer 1
10
-98.304001
20
578.000000
70
0
0
VERTEX
8
Layer 1
10
-106.496002
20
578.000000
70
0
0
VERTEX
8
Layer 1
10
-108.000000
20
578.000000
70
0
0
VERTEX
8
Layer 1
10
-108.781998
20
578.303986
70
0
0
VERTEX
8
Layer 1
10
-109.544998
20
579.208008
70
0
0
VERTEX
8
Layer 1
10
-109.638992
20
579.399994
70
0
0
VERTEX
8
Layer 1
10
-110.269997
20
580.688995
70
0
0
VERTEX
8
Layer 1
10
-110.520996
20
581.447998
70
0
0
VERTEX
8
Layer 1
10
-110.592003
20
581.662689
70
0
0
VERTEX
8
Layer 1
10
-110.939003
20
582.712006
70
0
0
VERTEX
8
Layer 1
10
-111.125099
20
583.496002
70
0
0
VERTEX
8
Layer 1
10
-111.536003
20
585.226990
70
0
0
VERTEX
8
Layer 1
10
-111.944893
20
587.592010
70
0
0
VERTEX
8
Layer 1
10
-112.044998
20
588.170990
70
0
0
VERTEX
8
Layer 1
10
-112.227402
20
589.640015
70
0
0
VERTEX
8
Layer 1
10
-112.354546
20
590.664001
70
0
0
VERTEX
8
Layer 1
10
-112.455002
20
591.472992
70
0
0
VERTEX
8
Layer 1
10
-112.473030
20
591.687988
70
0
0
VERTEX
8
Layer 1
10
-112.558914
20
592.712006
70
0
0
VERTEX
8
Layer 1
10
-112.639999
20
593.678802
70
0
0
VERTEX
8
Layer 1
10
-112.644798
20
593.735992
70
0
0
VERTEX
8
Layer 1
10
-112.754997
20
595.049988
70
0
0
VERTEX
8
Layer 1
10
-112.790680
20
595.783997
70
0
0
VERTEX
8
Layer 1
10
-112.890221
20
597.832001
70
0
0
VERTEX
8
Layer 1
10
-112.938004
20
598.815002
70
0
0
VERTEX
8
Layer 1
10
-112.938660
20
598.855988
70
0
0
VERTEX
8
Layer 1
10
-112.955109
20
599.880005
70
0
0
VERTEX
8
Layer 1
10
-112.987999
20
601.928009
70
0
0
VERTEX
8
Layer 1
10
-113.000000
20
602.674988
70
0
0
VERTEX
8
Layer 1
10
-113.000000
20
603.976013
70
0
0
VERTEX
8
Layer 1
10
-113.000000
20
612.167999
70
0
0
VERTEX
8
Layer 1
10
-113.000000
20
620.359985
70
0
0
VERTEX
8
Layer 1
10
-113.000000
20
628.552002
70
0
0
VERTEX
8
Layer 1
10
-113.000000
20
636.743988
70
0
0
VERTEX
8
Layer 1
10
-113.000000
20
644.936005
70
0
0
VERTEX
8
Layer 1
10
-113.000000
20
653.127991
70
0
0
VERTEX
8
Layer 1
10
-113.000000
20
661.320007
70
0
0
VERTEX
8
Layer 1
10
-113.000000
20
669.511993
70
0
0
VERTEX
8
Layer 1
10
-113.000000
20
677.704010
70
0
0
VERTEX
8
Layer 1
10
-113.000000
20
685.895996
70
0
0
VERTEX
8
Layer 1
10
-113.000000
20
694.088013
70
0
0
VERTEX
8
Layer 1
10
-113.000000
20
702.279999
70
0
0
VERTEX
8
Layer 1
10
-113.000000
20
710.471985
70
0
0
VERTEX
8
Layer 1
10
-113.000000
20
718.664001
70
0
0
VERTEX
8
Layer 1
10
-113.000000
20
726.855988
70
0
0
VERTEX
8
Layer 1
10
-113.000000
20
735.048004
70
0
0
VERTEX
8
Layer 1
10
-113.000000
20
743.240005
70
0
0
VERTEX
8
Layer 1
10
-113.000000
20
751.432007
70
0
0
VERTEX
8
Layer 1
10
-113.000000
20
759.623993
70
0
0
VERTEX
8
Layer 1
10
-113.000000
20
767.815994
70
0
0
VERTEX
8
Layer 1
10
-113.000000
20
776.007996
70
0
0
VERTEX
8
Layer 1
10
-113.000000
20
784.199997
70
0
0
VERTEX
8
Layer 1
10
-113.000000
20
792.391998
70
0
0
VERTEX
8
Layer 1
10
-113.000000
20
800.584000
70
0
0
VERTEX
8
Layer 1
10
-113.000000
20
808.776001
70
0
0
VERTEX
8
Layer 1
10
-113.000000
20
816.968002
70
0
0
VERTEX
8
Layer 1
10
-113.000000
20
825.160004
70
0
0
VERTEX
8
Layer 1
10
-113.000000
20
833.352005
70
0
0
VERTEX
8
Layer 1
10
-113.000000
20
841.544006
70
0
0
VERTEX
8
Layer 1
10
-113.000000
20
849.735992
70
0
0
VERTEX
8
Layer 1
10
-113.000000
20
857.927994
70
0
0
VERTEX
8
Layer 1
10
-113.000000
20
866.120003
70
0
0
VERTEX
8
Layer 1
10
-113.000000
20
874.311996
70
0
0
VERTEX
8
Layer 1
10
-113.000000
20
882.503998
70
0
0
VERTEX
8
Layer 1
10
-113.000000
20
890.695999
70
0
0
VERTEX
8
Layer 1
10
-113.000000
20
898.888000
70
0
0
VERTEX
8
Layer 1
10
-113.000000
20
907.080002
70
0
0
VERTEX
8
Layer 1
10
-113.000000
20
915.272003
70
0
0
VERTEX
8
Layer 1
10
-113.000000
20
923.463997
70
0
0
VERTEX
8
Layer 1
10
-113.000000
20
931.655998
70
0
0
VERTEX
8
Layer 1
10
-113.000000
20
939.848000
70
0
0
VERTEX
8
Layer 1
10
-113.000000
20
948.040001
70
0
0
VERTEX
8
Layer 1
10
-113.000000
20
956.231998
70
0
0
VERTEX
8
Layer 1
10
-113.000000
20
964.424000
70
0
0
VERTEX
8
Layer 1
10
-113.000000
20
972.615999
70
0
0
VERTEX
8
Layer 1
10
-113.000000
20
980.808000
70
0
0
VERTEX
8
Layer 1
10
-113.000000
20
989.000000
70
0
0
VERTEX
8
Layer 1
10
-113.000000
20
997.192000
70
0
0
VERTEX
8
Layer 1
10
-113.000000
20
1005.384001
70
0
0
VERTEX
8
Layer 1
10
-113.000000
20
1013.576000
70
0
0
VERTEX
8
Layer 1
10
-113.000000
20
1021.768002
70
0
0
VERTEX
8
Layer 1
10
-113.000000
20
1029.959999
70
0
0
VERTEX
8
Layer 1
10
-113.000000
20
1038.152000
70
0
0
VERTEX
8
Layer 1
10
-113.000000
20
1046.344002
70
0
0
VERTEX
8
Layer 1
10
-113.000000
20
1054.536003
70
0
0
VERTEX
8
Layer 1
10
-113.000000
20
1062.727997
70
0
0
VERTEX
8
Layer 1
10
-113.000000
20
1070.919998
70
0
0
VERTEX
8
Layer 1
10
-113.000000
20
1079.112000
70
0
0
VERTEX
8
Layer 1
10
-113.000000
20
1087.304001
70
0
0
VERTEX
8
Layer 1
10
-113.000000
20
1095.496002
70
0
0
VERTEX
8
Layer 1
10
-113.000000
20
1103.688004
70
0
0
VERTEX
8
Layer 1
10
-113.000000
20
1111.879997
70
0
0
VERTEX
8
Layer 1
10
-113.000000
20
1120.072006
70
0
0
VERTEX
8
Layer 1
10
-113.000000
20
1128.264008
70
0
0
VERTEX
8
Layer 1
10
-113.000000
20
1136.455994
70
0
0
VERTEX
8
Layer 1
10
-113.000000
20
1144.647995
70
0
0
VERTEX
8
Layer 1
10
-113.000000
20
1152.839996
70
0
0
VERTEX
8
Layer 1
10
-113.000000
20
1161.031998
70
0
0
VERTEX
8
Layer 1
10
-113.000000
20
1169.223999
70
0
0
VERTEX
8
Layer 1
10
-113.000000
20
1177.416000
70
0
0
VERTEX
8
Layer 1
10
-113.000000
20
1185.608002
70
0
0
VERTEX
8
Layer 1
10
-113.000000
20
1193.800003
70
0
0
VERTEX
8
Layer 1
10
-113.000000
20
1201.992004
70
0
0
VERTEX
8
Layer 1
10
-113.000000
20
1210.184006
70
0
0
VERTEX
8
Layer 1
10
-113.000000
20
1218.376007
70
0
0
VERTEX
8
Layer 1
10
-113.000000
20
1226.567993
70
0
0
VERTEX
8
Layer 1
10
-113.000000
20
1234.759995
70
0
0
VERTEX
8
Layer 1
10
-113.000000
20
1242.951996
70
0
0
VERTEX
8
Layer 1
10
-113.000000
20
1251.144012
70
0
0
VERTEX
8
Layer 1
10
-113.000000
20
1259.335999
70
0
0
VERTEX
8
Layer 1
10
-113.000000
20
1267.528015
70
0
0
VERTEX
8
Layer 1
10
-113.000000
20
1275.720001
70
0
0
VERTEX
8
Layer 1
10
-113.000000
20
1283.911987
70
0
0
VERTEX
8
Layer 1
10
-113.000000
20
1292.104004
70
0
0
VERTEX
8
Layer 1
10
-113.000000
20
1300.295990
70
0
0
VERTEX
8
Layer 1
10
-113.000000
20
1308.488007
70
0
0
VERTEX
8
Layer 1
10
-113.000000
20
1316.679993
70
0
0
VERTEX
8
Layer 1
10
-113.000000
20
1324.872009
70
0
0
VERTEX
8
Layer 1
10
-113.000000
20
1333.063995
70
0
0
VERTEX
8
Layer 1
10
-113.000000
20
1341.256012
70
0
0
VERTEX
8
Layer 1
10
-113.000000
20
1349.447998
70
0
0
VERTEX
8
Layer 1
10
-113.000000
20
1357.640015
70
0
0
VERTEX
8
Layer 1
10
-113.000000
20
1365.832001
70
0
0
VERTEX
8
Layer 1
10
-113.000000
20
1374.023987
70
0
0
VERTEX
8
Layer 1
10
-113.000000
20
1382.216003
70
0
0
VERTEX
8
Layer 1
10
-113.000000
20
1390.407990
70
0
0
VERTEX
8
Layer 1
10
-113.000000
20
1398.600006
70
0
0
VERTEX
8
Layer 1
10
-113.000000
20
1406.791992
70
0
0
VERTEX
8
Layer 1
10
-113.000000
20
1414.984009
70
0
0
VERTEX
8
Layer 1
10
-113.000000
20
1423.175995
70
0
0
VERTEX
8
Layer 1
10
-113.000000
20
1431.368011
70
0
0
VERTEX
8
Layer 1
10
-113.000000
20
1439.559998
70
0
0
VERTEX
8
Layer 1
10
-113.000000
20
1447.752014
70
0
0
VERTEX
8
Layer 1
10
-113.000000
20
1455.944000
70
0
0
VERTEX
8
Layer 1
10
-113.000000
20
1464.135986
70
0
0
VERTEX
8
Layer 1
10
-113.000000
20
1472.328003
70
0
0
VERTEX
8
Layer 1
10
-113.000000
20
1480.519989
70
0
0
VERTEX
8
Layer 1
10
-113.000000
20
1488.712006
70
0
0
VERTEX
8
Layer 1
10
-113.000000
20
1496.903992
70
0
0
VERTEX
8
Layer 1
10
-113.000000
20
1505.096008
70
0
0
VERTEX
8
Layer 1
10
-113.000000
20
1513.288025
70
0
0
VERTEX
8
Layer 1
10
-113.000000
20
1521.479980
70
0
0
VERTEX
8
Layer 1
10
-113.000000
20
1529.671997
70
0
0
VERTEX
8
Layer 1
10
-113.000000
20
1537.864014
70
0
0
VERTEX
8
Layer 1
10
-113.000000
20
1539.911987
70
0
0
VERTEX
8
Layer 1
10
-113.000000
20
1540.325012
70
0
0
VERTEX
8
Layer 1
10
-112.973740
20
1541.960022
70
0
0
VERTEX
8
Layer 1
10
-112.940842
20
1544.007996
70
0
0
VERTEX
8
Layer 1
10
-112.938004
20
1544.184998
70
0
0
VERTEX
8
Layer 1
10
-112.847061
20
1546.056030
70
0
0
VERTEX
8
Layer 1
10
-112.754997
20
1547.950012
70
0
0
VERTEX
8
Layer 1
10
-112.742081
20
1548.104004
70
0
0
VERTEX
8
Layer 1
10
-112.570320
20
1550.151978
70
0
0
VERTEX
8
Layer 1
10
-112.484436
20
1551.176025
70
0
0
VERTEX
8
Layer 1
10
-112.455002
20
1551.526978
70
0
0
VERTEX
8
Layer 1
10
-112.371437
20
1552.200012
70
0
0
VERTEX
8
Layer 1
10
-112.117142
20
1554.247986
70
0
0
VERTEX
8
Layer 1
10
-112.044998
20
1554.828979
70
0
0
VERTEX
8
Layer 1
10
-111.791367
20
1556.296021
70
0
0
VERTEX
8
Layer 1
10
-111.536003
20
1557.773010
70
0
0
VERTEX
8
Layer 1
10
-111.400459
20
1558.343994
70
0
0
VERTEX
8
Layer 1
10
-110.939003
20
1560.288025
70
0
0
VERTEX
8
Layer 1
10
-110.592003
20
1561.337280
70
0
0
VERTEX
8
Layer 1
10
-110.269997
20
1562.310974
70
0
0
VERTEX
8
Layer 1
10
-110.206848
20
1562.440002
70
0
0
VERTEX
8
Layer 1
10
-109.544998
20
1563.791992
70
0
0
VERTEX
8
Layer 1
10
-108.781998
20
1564.695984
70
0
0
VERTEX
8
Layer 1
10
-108.000000
20
1565.000000
70
0
0
VERTEX
8
Layer 1
10
-106.496002
20
1565.000000
70
0
0
VERTEX
8
Layer 1
10
-98.304001
20
1565.000000
70
0
0
VERTEX
8
Layer 1
10
-81.919998
20
1565.000000
70
0
0
VERTEX
8
Layer 1
10
-65.536003
20
1565.000000
70
0
0
VERTEX
8
Layer 1
10
-49.152000
20
1565.000000
70
0
0
VERTEX
8
Layer 1
10
-32.768002
20
1565.000000
70
0
0
VERTEX
8
Layer 1
10
-16.384001
20
1565.000000
70
0
0
VERTEX
8
Layer 1
10
0.000000
20
1565.000000
70
0
0
VERTEX
8
Layer 1
10
16.384001
20
1565.000000
70
0
0
VERTEX
8
Layer 1
10
32.768002
20
1565.000000
70
0
0
VERTEX
8
Layer 1
10
49.152000
20
1565.000000
70
0
0
VERTEX
8
Layer 1
10
65.536003
20
1565.000000
70
0
0
VERTEX
8
Layer 1
10
81.919998
20
1565.000000
70
0
0
VERTEX
8
Layer 1
10
82.000000
20
1565.000000
70
0
0
VERTEX
8
Layer 1
10
82.781998
20
1564.695984
70
0
0
VERTEX
8
Layer 1
10
83.544998
20
1563.791992
70
0
0
VERTEX
8
Layer 1
10
83.544998
20
1563.791992
70
0
0
SEQEND
8
Layer 1
 0 
ENDSEC
 0 
EOF