999
"DXF R12 Output" (www.mydxf.blogspot.com)
 0 
SECTION
 2 
HEADER
 9 
$ACADVER
 1 
AC1009
 9 
$EXTMIN
 10 
 0 
 20 
 0 
 9 
$EXTMAX
 10 
 8.5 
 20 
 11 
 0 
ENDSEC
 0 
SECTION
 2 
ENTITIES
0
POLYLINE
8
Layer 1
62
10
70
0
10
0.000000
20
0.000000
66
1
0
VERTEX
8
Layer 1
10
93.536003
20
435.730003
70
0
0
VERTEX
8
Layer 1
10
94.003731
20
434.879997
70
0
0
VERTEX
8
Layer 1
10
94.044998
20
434.805000
70
0
0
VERTEX
8
Layer 1
10
94.208000
20
434.392731
70
0
0
VERTEX
8
Layer 1
10
94.455002
20
433.767998
70
0
0
VERTEX
8
Layer 1
10
94.705048
20
432.832001
70
0
0
VERTEX
8
Layer 1
10
94.754997
20
432.644997
70
0
0
VERTEX
8
Layer 1
10
94.805275
20
432.320000
70
0
0
VERTEX
8
Layer 1
10
94.884476
20
431.807999
70
0
0
VERTEX
8
Layer 1
10
94.938004
20
431.461998
70
0
0
VERTEX
8
Layer 1
10
94.946495
20
431.295998
70
0
0
VERTEX
8
Layer 1
10
94.972687
20
430.783997
70
0
0
VERTEX
8
Layer 1
10
95.000000
20
430.250000
70
0
0
VERTEX
8
Layer 1
10
95.000000
20
426.688004
70
0
0
VERTEX
8
Layer 1
10
95.000000
20
418.496002
70
0
0
VERTEX
8
Layer 1
10
95.000000
20
410.304001
70
0
0
VERTEX
8
Layer 1
10
95.000000
20
402.112000
70
0
0
VERTEX
8
Layer 1
10
95.000000
20
393.919998
70
0
0
VERTEX
8
Layer 1
10
95.000000
20
385.727997
70
0
0
VERTEX
8
Layer 1
10
95.000000
20
377.536003
70
0
0
VERTEX
8
Layer 1
10
95.000000
20
369.344002
70
0
0
VERTEX
8
Layer 1
10
95.000000
20
361.152000
70
0
0
VERTEX
8
Layer 1
10
95.000000
20
352.959999
70
0
0
VERTEX
8
Layer 1
10
95.000000
20
344.768002
70
0
0
VERTEX
8
Layer 1
10
95.000000
20
336.576000
70
0
0
VERTEX
8
Layer 1
10
95.000000
20
328.384001
70
0
0
VERTEX
8
Layer 1
10
95.000000
20
320.192000
70
0
0
VERTEX
8
Layer 1
10
95.000000
20
312.000000
70
0
0
VERTEX
8
Layer 1
10
95.000000
20
303.808000
70
0
0
VERTEX
8
Layer 1
10
95.000000
20
295.615999
70
0
0
VERTEX
8
Layer 1
10
95.000000
20
287.424000
70
0
0
VERTEX
8
Layer 1
10
95.000000
20
279.231998
70
0
0
VERTEX
8
Layer 1
10
95.000000
20
271.040001
70
0
0
VERTEX
8
Layer 1
10
95.000000
20
262.848000
70
0
0
VERTEX
8
Layer 1
10
95.000000
20
254.655998
70
0
0
VERTEX
8
Layer 1
10
95.000000
20
246.463997
70
0
0
VERTEX
8
Layer 1
10
95.000000
20
238.272003
70
0
0
VERTEX
8
Layer 1
10
95.000000
20
230.080002
70
0
0
VERTEX
8
Layer 1
10
95.000000
20
221.888000
70
0
0
VERTEX
8
Layer 1
10
95.000000
20
213.695999
70
0
0
VERTEX
8
Layer 1
10
95.000000
20
205.503998
70
0
0
VERTEX
8
Layer 1
10
95.000000
20
197.311996
70
0
0
VERTEX
8
Layer 1
10
95.000000
20
189.120003
70
0
0
VERTEX
8
Layer 1
10
95.000000
20
180.927994
70
0
0
VERTEX
8
Layer 1
10
95.000000
20
172.735992
70
0
0
VERTEX
8
Layer 1
10
95.000000
20
164.544006
70
0
0
VERTEX
8
Layer 1
10
95.000000
20
156.352005
70
0
0
VERTEX
8
Layer 1
10
95.000000
20
148.160004
70
0
0
VERTEX
8
Layer 1
10
95.000000
20
139.968002
70
0
0
VERTEX
8
Layer 1
10
95.000000
20
135.871994
70
0
0
VERTEX
8
Layer 1
10
95.000000
20
135.750000
70
0
0
VERTEX
8
Layer 1
10
94.980049
20
135.360001
70
0
0
VERTEX
8
Layer 1
10
94.953857
20
134.848007
70
0
0
VERTEX
8
Layer 1
10
94.938004
20
134.537994
70
0
0
VERTEX
8
Layer 1
10
94.906754
20
134.335999
70
0
0
VERTEX
8
Layer 1
10
94.827553
20
133.824005
70
0
0
VERTEX
8
Layer 1
10
94.754997
20
133.354996
70
0
0
VERTEX
8
Layer 1
10
94.743515
20
133.311996
70
0
0
VERTEX
8
Layer 1
10
94.606735
20
132.800003
70
0
0
VERTEX
8
Layer 1
10
94.455002
20
132.231995
70
0
0
VERTEX
8
Layer 1
10
94.274712
20
131.776001
70
0
0
VERTEX
8
Layer 1
10
94.208000
20
131.607269
70
0
0
VERTEX
8
Layer 1
10
94.044998
20
131.195007
70
0
0
VERTEX
8
Layer 1
10
93.801231
20
130.751999
70
0
0
VERTEX
8
Layer 1
10
93.536003
20
130.270004
70
0
0
VERTEX
8
Layer 1
10
93.126411
20
129.727997
70
0
0
VERTEX
8
Layer 1
10
92.939003
20
129.479996
70
0
0
VERTEX
8
Layer 1
10
92.269997
20
128.845001
70
0
0
VERTEX
8
Layer 1
10
92.160004
20
128.774292
70
0
0
VERTEX
8
Layer 1
10
91.544998
20
128.378998
70
0
0
VERTEX
8
Layer 1
10
91.136002
20
128.226761
70
0
0
VERTEX
8
Layer 1
10
90.781998
20
128.095001
70
0
0
VERTEX
8
Layer 1
10
90.112000
20
128.013611
70
0
0
VERTEX
8
Layer 1
10
90.000000
20
128.000000
70
0
0
VERTEX
8
Layer 1
10
81.919998
20
128.000000
70
0
0
VERTEX
8
Layer 1
10
65.536003
20
128.000000
70
0
0
VERTEX
8
Layer 1
10
49.152000
20
128.000000
70
0
0
VERTEX
8
Layer 1
10
32.768002
20
128.000000
70
0
0
VERTEX
8
Layer 1
10
16.384001
20
128.000000
70
0
0
VERTEX
8
Layer 1
10
0.000000
20
128.000000
70
0
0
VERTEX
8
Layer 1
10
-16.384001
20
128.000000
70
0
0
VERTEX
8
Layer 1
10
-32.768002
20
128.000000
70
0
0
VERTEX
8
Layer 1
10
-49.152000
20
128.000000
70
0
0
VERTEX
8
Layer 1
10
-65.536003
20
128.000000
70
0
0
VERTEX
8
Layer 1
10
-81.919998
20
128.000000
70
0
0
VERTEX
8
Layer 1
10
-98.304001
20
128.000000
70
0
0
VERTEX
8
Layer 1
10
-100.000000
20
128.000000
70
0
0
VERTEX
8
Layer 1
10
-100.351997
20
128.042755
70
0
0
VERTEX
8
Layer 1
10
-100.781998
20
128.095001
70
0
0
VERTEX
8
Layer 1
10
-101.375999
20
128.316101
70
0
0
VERTEX
8
Layer 1
10
-101.544998
20
128.378998
70
0
0
VERTEX
8
Layer 1
10
-102.269997
20
128.845001
70
0
0
VERTEX
8
Layer 1
10
-102.400002
20
128.968399
70
0
0
VERTEX
8
Layer 1
10
-102.939003
20
129.479996
70
0
0
VERTEX
8
Layer 1
10
-103.126411
20
129.727997
70
0
0
VERTEX
8
Layer 1
10
-103.536003
20
130.270004
70
0
0
VERTEX
8
Layer 1
10
-103.801231
20
130.751999
70
0
0
VERTEX
8
Layer 1
10
-104.044998
20
131.195007
70
0
0
VERTEX
8
Layer 1
10
-104.274712
20
131.776001
70
0
0
VERTEX
8
Layer 1
10
-104.447998
20
132.214294
70
0
0
VERTEX
8
Layer 1
10
-104.455002
20
132.231995
70
0
0
VERTEX
8
Layer 1
10
-104.606735
20
132.800003
70
0
0
VERTEX
8
Layer 1
10
-104.743515
20
133.311996
70
0
0
VERTEX
8
Layer 1
10
-104.754997
20
133.354996
70
0
0
VERTEX
8
Layer 1
10
-104.827553
20
133.824005
70
0
0
VERTEX
8
Layer 1
10
-104.906754
20
134.335999
70
0
0
VERTEX
8
Layer 1
10
-104.938004
20
134.537994
70
0
0
VERTEX
8
Layer 1
10
-104.953857
20
134.848007
70
0
0
VERTEX
8
Layer 1
10
-104.980049
20
135.360001
70
0
0
VERTEX
8
Layer 1
10
-105.000000
20
135.750000
70
0
0
VERTEX
8
Layer 1
10
-105.000000
20
135.871994
70
0
0
VERTEX
8
Layer 1
10
-105.000000
20
139.968002
70
0
0
VERTEX
8
Layer 1
10
-105.000000
20
148.160004
70
0
0
VERTEX
8
Layer 1
10
-105.000000
20
156.352005
70
0
0
VERTEX
8
Layer 1
10
-105.000000
20
164.544006
70
0
0
VERTEX
8
Layer 1
10
-105.000000
20
172.735992
70
0
0
VERTEX
8
Layer 1
10
-105.000000
20
180.927994
70
0
0
VERTEX
8
Layer 1
10
-105.000000
20
189.120003
70
0
0
VERTEX
8
Layer 1
10
-105.000000
20
197.311996
70
0
0
VERTEX
8
Layer 1
10
-105.000000
20
205.503998
70
0
0
VERTEX
8
Layer 1
10
-105.000000
20
213.695999
70
0
0
VERTEX
8
Layer 1
10
-105.000000
20
221.888000
70
0
0
VERTEX
8
Layer 1
10
-105.000000
20
230.080002
70
0
0
VERTEX
8
Layer 1
10
-105.000000
20
238.272003
70
0
0
VERTEX
8
Layer 1
10
-105.000000
20
246.463997
70
0
0
VERTEX
8
Layer 1
10
-105.000000
20
254.655998
70
0
0
VERTEX
8
Layer 1
10
-105.000000
20
262.848000
70
0
0
VERTEX
8
Layer 1
10
-105.000000
20
271.040001
70
0
0
VERTEX
8
Layer 1
10
-105.000000
20
279.231998
70
0
0
VERTEX
8
Layer 1
10
-105.000000
20
287.424000
70
0
0
VERTEX
8
Layer 1
10
-105.000000
20
295.615999
70
0
0
VERTEX
8
Layer 1
10
-105.000000
20
303.808000
70
0
0
VERTEX
8
Layer 1
10
-105.000000
20
312.000000
70
0
0
VERTEX
8
Layer 1
10
-105.000000
20
320.192000
70
0
0
VERTEX
8
Layer 1
10
-105.000000
20
328.384001
70
0
0
VERTEX
8
Layer 1
10
-105.000000
20
336.576000
70
0
0
VERTEX
8
Layer 1
10
-105.000000
20
344.768002
70
0
0
VERTEX
8
Layer 1
10
-105.000000
20
352.959999
70
0
0
VERTEX
8
Layer 1
10
-105.000000
20
361.152000
70
0
0
VERTEX
8
Layer 1
10
-105.000000
20
369.344002
70
0
0
VERTEX
8
Layer 1
10
-105.000000
20
377.536003
70
0
0
VERTEX
8
Layer 1
10
-105.000000
20
385.727997
70
0
0
VERTEX
8
Layer 1
10
-105.000000
20
393.919998
70
0
0
VERTEX
8
Layer 1
10
-105.000000
20
402.112000
70
0
0
VERTEX
8
Layer 1
10
-105.000000
20
410.304001
70
0
0
VERTEX
8
Layer 1
10
-105.000000
20
418.496002
70
0
0
VERTEX
8
Layer 1
10
-105.000000
20
426.688004
70
0
0
VERTEX
8
Layer 1
10
-105.000000
20
428.736000
70
0
0
VERTEX
8
Layer 1
10
-105.000000
20
430.250000
70
0
0
VERTEX
8
Layer 1
10
-104.972687
20
430.783997
70
0
0
VERTEX
8
Layer 1
10
-104.946495
20
431.295998
70
0
0
VERTEX
8
Layer 1
10
-104.938004
20
431.461998
70
0
0
VERTEX
8
Layer 1
10
-104.884476
20
431.807999
70
0
0
VERTEX
8
Layer 1
10
-104.805275
20
432.320000
70
0
0
VERTEX
8
Layer 1
10
-104.754997
20
432.644997
70
0
0
VERTEX
8
Layer 1
10
-104.705048
20
432.832001
70
0
0
VERTEX
8
Layer 1
10
-104.455002
20
433.767998
70
0
0
VERTEX
8
Layer 1
10
-104.447998
20
433.785706
70
0
0
VERTEX
8
Layer 1
10
-104.420204
20
433.856003
70
0
0
VERTEX
8
Layer 1
10
-104.044998
20
434.805000
70
0
0
VERTEX
8
Layer 1
10
-104.003731
20
434.879997
70
0
0
VERTEX
8
Layer 1
10
-103.536003
20
435.730003
70
0
0
VERTEX
8
Layer 1
10
-103.404510
20
435.903999
70
0
0
VERTEX
8
Layer 1
10
-102.939003
20
436.519997
70
0
0
VERTEX
8
Layer 1
10
-102.509155
20
436.928001
70
0
0
VERTEX
8
Layer 1
10
-102.400002
20
437.031609
70
0
0
VERTEX
8
Layer 1
10
-102.269997
20
437.154999
70
0
0
VERTEX
8
Layer 1
10
-101.544998
20
437.621002
70
0
0
VERTEX
8
Layer 1
10
-100.781998
20
437.904999
70
0
0
VERTEX
8
Layer 1
10
-100.351997
20
437.957237
70
0
0
VERTEX
8
Layer 1
10
-100.000000
20
438.000000
70
0
0
VERTEX
8
Layer 1
10
-98.304001
20
438.000000
70
0
0
VERTEX
8
Layer 1
10
-90.112000
20
438.000000
70
0
0
VERTEX
8
Layer 1
10
-81.919998
20
438.000000
70
0
0
VERTEX
8
Layer 1
10
-73.727997
20
438.000000
70
0
0
VERTEX
8
Layer 1
10
-65.536003
20
438.000000
70
0
0
VERTEX
8
Layer 1
10
-57.344002
20
438.000000
70
0
0
VERTEX
8
Layer 1
10
-49.152000
20
438.000000
70
0
0
VERTEX
8
Layer 1
10
-40.959999
20
438.000000
70
0
0
VERTEX
8
Layer 1
10
-32.768002
20
438.000000
70
0
0
VERTEX
8
Layer 1
10
-24.576000
20
438.000000
70
0
0
VERTEX
8
Layer 1
10
-16.384001
20
438.000000
70
0
0
VERTEX
8
Layer 1
10
-8.192000
20
438.000000
70
0
0
VERTEX
8
Layer 1
10
0.000000
20
438.000000
70
0
0
VERTEX
8
Layer 1
10
8.192000
20
438.000000
70
0
0
VERTEX
8
Layer 1
10
16.384001
20
438.000000
70
0
0
VERTEX
8
Layer 1
10
24.576000
20
438.000000
70
0
0
VERTEX
8
Layer 1
10
32.768002
20
438.000000
70
0
0
VERTEX
8
Layer 1
10
40.959999
20
438.000000
70
0
0
VERTEX
8
Layer 1
10
49.152000
20
438.000000
70
0
0
VERTEX
8
Layer 1
10
57.344002
20
438.000000
70
0
0
VERTEX
8
Layer 1
10
65.536003
20
438.000000
70
0
0
VERTEX
8
Layer 1
10
73.727997
20
438.000000
70
0
0
VERTEX
8
Layer 1
10
81.919998
20
438.000000
70
0
0
VERTEX
8
Layer 1
10
90.000000
20
438.000000
70
0
0
VERTEX
8
Layer 1
10
90.112000
20
437.986397
70
0
0
VERTEX
8
Layer 1
10
90.781998
20
437.904999
70
0
0
VERTEX
8
Layer 1
10
91.544998
20
437.621002
70
0
0
VERTEX
8
Layer 1
10
92.160004
20
437.225700
70
0
0
VERTEX
8
Layer 1
10
92.269997
20
437.154999
70
0
0
VERTEX
8
Layer 1
10
92.509155
20
436.928001
70
0
0
VERTEX
8
Layer 1
10
92.939003
20
436.519997
70
0
0
VERTEX
8
Layer 1
10
93.404510
20
435.903999
70
0
0
VERTEX
8
Layer 1
10
93.536003
20
435.730003
70
0
0
VERTEX
8
Layer 1
10
93.536003
20
435.730003
70
0
0
SEQEND
8
Layer 1
 0 
ENDSEC
 0 
EOF